<svg xmlns="http://www.w3.org/2000/svg" width="40" height="40" viewBox="0 0 40 40">
  <g id="Group_9487" data-name="Group 9487" transform="translate(-33 -595)">
    <path id="Path_21831" data-name="Path 21831" d="M38,40H2a2,2,0,0,1-2-2V2A2,2,0,0,1,2,0H38a2,2,0,0,1,2,2V38a2,2,0,0,1-2,2" transform="translate(33 595)" fill="#fff"/>
    <g id="Group_9480" data-name="Group 9480">
      <path id="Path_21832" data-name="Path 21832" d="M33.527,11.818c.735.717,1.473,1.4,2.164,2.127a1.186,1.186,0,0,1-.108,1.7c-.629.644-1.272,1.275-1.908,1.912-.465.466-.929.933-1.4,1.407-.178-.173-.336-.337-.505-.488a.632.632,0,0,0-.9-.033.638.638,0,0,0,.023.926c.145.164.3.323.423.461-.839.84-1.695,1.695-2.558,2.558-.161-.138-.342-.311-.54-.46a3.23,3.23,0,0,0-4.107.184c-.683.632-1.345,1.292-1.975,1.977a3.244,3.244,0,0,0,0,4.305c.1.117.212.23.331.359-.075.081-.142.159-.215.231q-3.241,3.245-6.485,6.487a1.28,1.28,0,0,1-2.087-.01c-.622-.621-1.246-1.24-1.89-1.882a3.847,3.847,0,0,0,.847-3.2,3.8,3.8,0,0,0-6.153-2.238c-.749-.717-1.5-1.4-2.2-2.126a1.133,1.133,0,0,1-.026-1.453,2.148,2.148,0,0,1,.227-.259L20.045,8.728c.037-.036.077-.071.052-.048.214.174.425.338.627.513a.641.641,0,0,0,.927.043.627.627,0,0,0-.034-.924c-.176-.19-.373-.362-.579-.558a.651.651,0,0,1,.062-.078c1.081-1.082,2.157-2.167,3.244-3.243a1.219,1.219,0,0,1,1.86,0c.665.65,1.318,1.313,1.986,1.982a3.822,3.822,0,0,0-.827,3.045,3.826,3.826,0,0,0,6.164,2.361M23.32,11.513a.6.6,0,0,0,.523-.914,2.533,2.533,0,0,0-.661-.657.61.61,0,0,0-.913.539,1.421,1.421,0,0,0,1.051,1.032m1.667.451a.6.6,0,0,0-.516.919,2.2,2.2,0,0,0,.64.631.7.7,0,0,0,.6,0,.773.773,0,0,0,.312-.526c.042-.387-.648-1.03-1.039-1.025m3.21,3.187a1.789,1.789,0,0,0-.777-.994.6.6,0,0,0-.751.075.571.571,0,0,0-.09.77,2.386,2.386,0,0,0,.621.607.746.746,0,0,0,.607.013c.167-.078.263-.308.39-.471m.89,1.011c-.087.064-.321.153-.4.318a.732.732,0,0,0,0,.606,1.9,1.9,0,0,0,.632.633.7.7,0,0,0,.6,0,.776.776,0,0,0,.31-.528c.039-.366-.646-1.014-1.141-1.024" transform="translate(33 595)" fill="#d7d9dc"/>
      <path id="Path_21833" data-name="Path 21833" d="M33.527,11.818c.735.717,1.473,1.4,2.164,2.127a1.186,1.186,0,0,1-.108,1.7c-.629.644-1.272,1.275-1.908,1.912-.465.466-.929.933-1.4,1.407-.178-.173-.336-.337-.505-.488a.632.632,0,0,0-.9-.033.638.638,0,0,0,.023.926c.145.164.3.323.423.461-.839.84-1.695,1.695-2.558,2.558-.161-.138-.342-.311-.54-.46a3.23,3.23,0,0,0-4.107.184c-.683.632-1.345,1.292-1.975,1.977a3.244,3.244,0,0,0,0,4.305c.1.117.212.23.331.359-.075.081-.142.159-.215.231q-3.241,3.245-6.485,6.487a1.28,1.28,0,0,1-2.087-.01c-.622-.621-1.246-1.24-1.89-1.882a3.847,3.847,0,0,0,.847-3.2,3.8,3.8,0,0,0-6.153-2.238c-.749-.717-1.5-1.4-2.2-2.126a1.133,1.133,0,0,1-.026-1.453,2.148,2.148,0,0,1,.227-.259L20.045,8.728c.037-.036.077-.071.052-.048.214.174.425.338.627.513a.641.641,0,0,0,.927.043.627.627,0,0,0-.034-.924c-.176-.19-.373-.362-.579-.558a.651.651,0,0,1,.062-.078c1.081-1.082,2.157-2.167,3.244-3.243a1.219,1.219,0,0,1,1.86,0c.665.65,1.318,1.313,1.986,1.982a3.822,3.822,0,0,0-.827,3.045,3.826,3.826,0,0,0,6.164,2.361ZM23.32,11.513a.6.6,0,0,0,.523-.914,2.533,2.533,0,0,0-.661-.657.61.61,0,0,0-.913.539A1.421,1.421,0,0,0,23.32,11.513Zm1.667.451a.6.6,0,0,0-.516.919,2.2,2.2,0,0,0,.64.631.7.7,0,0,0,.6,0,.773.773,0,0,0,.312-.526C26.068,12.6,25.378,11.959,24.987,11.964Zm3.21,3.187a1.789,1.789,0,0,0-.777-.994.6.6,0,0,0-.751.075.571.571,0,0,0-.09.77,2.386,2.386,0,0,0,.621.607.746.746,0,0,0,.607.013C27.974,15.544,28.07,15.314,28.2,15.151Zm.89,1.011c-.087.064-.321.153-.4.318a.732.732,0,0,0,0,.606,1.9,1.9,0,0,0,.632.633.7.7,0,0,0,.6,0,.776.776,0,0,0,.31-.528C30.267,16.82,29.582,16.172,29.087,16.162Z" transform="translate(33 595)" fill="none" stroke="#fff" stroke-width="0.5"/>
      <path id="Path_21834" data-name="Path 21834" d="M32.165,26.965a6.137,6.137,0,1,1-6.137-6.139,6.138,6.138,0,0,1,6.137,6.139" transform="translate(33 595)" fill="#b8bdc6"/>
      <circle id="Ellipse_201" data-name="Ellipse 201" cx="6.137" cy="6.137" r="6.137" transform="translate(52.892 615.828)" fill="none" stroke="#fff" stroke-width="0.5"/>
      <path id="Path_21835" data-name="Path 21835" d="M27.138,28.053c0,.821,0,1.591,0,2.361,0,.419-.157.575-.581.575-.379,0-.758,0-1.137,0a.46.46,0,0,1-.506-.506c0-.729,0-1.458,0-2.187a2.018,2.018,0,0,1,.027-.208c-.1,0-.162-.008-.224-.008H22.55c-.374,0-.543-.168-.544-.541,0-.391,0-.782,0-1.173a.462.462,0,0,1,.519-.513q1.094,0,2.186,0a1.029,1.029,0,0,1,.207.044c0-.813,0-1.566,0-2.318,0-.071,0-.143,0-.213a.442.442,0,0,1,.427-.419q.675-.012,1.35,0a.449.449,0,0,1,.445.5q0,1.1,0,2.2a1.388,1.388,0,0,1-.035.216c.309,0,.569-.008.829-.008.539,0,1.078,0,1.618,0a.453.453,0,0,1,.5.5c0,.415,0,.83,0,1.245a.454.454,0,0,1-.492.483c-.735,0-1.469,0-2.2,0a1.994,1.994,0,0,1-.214-.025" transform="translate(33 595)" fill="#fff"/>
    </g>
  </g>
</svg>
