<svg xmlns="http://www.w3.org/2000/svg" width="40" height="40" viewBox="0 0 40 40">
  <g id="Group_9486" data-name="Group 9486" transform="translate(-33 -451)">
    <path id="Path_21778" data-name="Path 21778" d="M38,40H2a2,2,0,0,1-2-2V2A2,2,0,0,1,2,0H38a2,2,0,0,1,2,2V38a2,2,0,0,1-2,2" transform="translate(33 451)" fill="#fff"/>
    <g id="Group_9478" data-name="Group 9478">
      <path id="Path_21779" data-name="Path 21779" d="M23.748,15.169v.5h-.03a4.07,4.07,0,0,0,.03-.5" transform="translate(33 451)" fill="#fff"/>
      <path id="Path_21780" data-name="Path 21780" d="M23.738,15.169v.5h-.03a4.07,4.07,0,0,0,.03-.5" transform="translate(33 451)" fill="#fff"/>
      <line id="Line_217" data-name="Line 217" x1="4.07" transform="translate(39.716 476.369)" fill="none" stroke="#fff" stroke-linejoin="round" stroke-width="0.5"/>
      <line id="Line_218" data-name="Line 218" x1="4.07" transform="translate(39.706 476.369)" fill="none" stroke="#fff" stroke-linejoin="round" stroke-width="0.5"/>
      <path id="Path_21781" data-name="Path 21781" d="M15.083,30.361H15.1c-.021.021-.042.043-.064.064Z" transform="translate(33 451)" fill="#415490"/>
      <path id="Path_21782" data-name="Path 21782" d="M15.1,30.361h-.021l-.043.064.064-.064" transform="translate(33 451)" fill="#fff"/>
      <path id="Path_21783" data-name="Path 21783" d="M12.338,29.408l-.06.08-.01-.01.07-.07" transform="translate(33 451)" fill="#fff"/>
      <path id="Path_21784" data-name="Path 21784" d="M12.338,29.408l-.06.08-.01-.01Z" transform="translate(33 451)" fill="none" stroke="#415490" stroke-width="0.5"/>
      <path id="Path_21785" data-name="Path 21785" d="M27.428,30.318s.02.06.06.15v.02a2.642,2.642,0,0,1,.13.84c0,.7-.36,1.41-2.05.94h-.03s.86,2.29-1.86,2.03h-.1s.75,2.09-1.41,1.52l-3.66-1.84a.881.881,0,0,0,.05-.29c0-.04-.01-.08-.01-.12,0-.01-.01-.02-.01-.03a1.327,1.327,0,0,0-.22-.52,1.947,1.947,0,0,0-.24-.26,1.653,1.653,0,0,0-.49-.36.75.75,0,0,0-.66-.05.927.927,0,0,0-.2.09l.09-.09a1.049,1.049,0,0,0,0-1.41c-.03-.04-.07-.09-.11-.14s-.1-.1-.15-.14c-.7-.66-1.2-.47-1.45-.3a.248.248,0,0,0,.04-.06,1.265,1.265,0,0,0,.25-.5,1.241,1.241,0,0,0,.03-.27.566.566,0,0,0-.02-.22.973.973,0,0,0-.17-.38,1.3,1.3,0,0,0-.28-.36,1.125,1.125,0,0,0-1.76-.02l-.86.86V29.4c.01-.02.02-.03.03-.05l.03-.06a.909.909,0,0,0,.05-.56.564.564,0,0,0-.04-.12,1.121,1.121,0,0,0-.05-.13,1.81,1.81,0,0,0-.41-.57,2.781,2.781,0,0,0-.28-.24l-.8-.23h-.03a.564.564,0,0,0-.12.04.681.681,0,0,0-.24.13l-.08.08c-.01,0-.02.01-.03.02l-.02.02-.09.09-.2.19-2.87-2.64-.15-.14,2.29-3.51,1.95-2.95c.3.3,7.96-.09,9.89-.56,1.97.51,2.76.97,2.77,1.41.04,1.49-8.84,2.55-9.3,3.06-1.01.99-.9,1.78-.39,2.19a1.966,1.966,0,0,0,.41.21.994.994,0,0,0,.49.07,1.054,1.054,0,0,0,.3-.03s.02.02.02,0a1.313,1.313,0,0,0,.32-.1,2.1,2.1,0,0,0,.3-.15,1.613,1.613,0,0,0,.28-.24c1.09-1.11,2.18-2.82,4.06-2.14a3.27,3.27,0,0,1,.94.49c.45.32,1.05.73,1.71,1.2s1.38.96,2.1,1.46c.36.26.72.51,1.07.74.35.25.7.49,1.03.73.28.21.56.4.81.56.33.24.64.45.9.64l-.02.02s.55,2.33-1.54,1.99" transform="translate(33 451)" fill="#fff"/>
      <path id="Path_21786" data-name="Path 21786" d="M27.428,30.318s.02.06.06.15v.02a2.642,2.642,0,0,1,.13.84c0,.7-.36,1.41-2.05.94h-.03s.86,2.29-1.86,2.03h-.1s.75,2.09-1.41,1.52l-3.66-1.84a.881.881,0,0,0,.05-.29c0-.04-.01-.08-.01-.12,0-.01-.01-.02-.01-.03a1.327,1.327,0,0,0-.22-.52,1.947,1.947,0,0,0-.24-.26,1.653,1.653,0,0,0-.49-.36.75.75,0,0,0-.66-.05.927.927,0,0,0-.2.09l.09-.09a1.049,1.049,0,0,0,0-1.41c-.03-.04-.07-.09-.11-.14s-.1-.1-.15-.14c-.7-.66-1.2-.47-1.45-.3a.248.248,0,0,0,.04-.06,1.265,1.265,0,0,0,.25-.5,1.241,1.241,0,0,0,.03-.27.566.566,0,0,0-.02-.22.973.973,0,0,0-.17-.38,1.3,1.3,0,0,0-.28-.36,1.125,1.125,0,0,0-1.76-.02l-.86.86V29.4c.01-.02.02-.03.03-.05l.03-.06a.909.909,0,0,0,.05-.56.564.564,0,0,0-.04-.12,1.121,1.121,0,0,0-.05-.13,1.81,1.81,0,0,0-.41-.57,2.781,2.781,0,0,0-.28-.24l-.8-.23h-.03a.564.564,0,0,0-.12.04.681.681,0,0,0-.24.13l-.08.08c-.01,0-.02.01-.03.02l-.02.02-.09.09-.2.19-2.87-2.64-.15-.14,2.29-3.51,1.95-2.95c.3.3,7.96-.09,9.89-.56,1.97.51,2.76.97,2.77,1.41.04,1.49-8.84,2.55-9.3,3.06-1.01.99-.9,1.78-.39,2.19a1.966,1.966,0,0,0,.41.21.994.994,0,0,0,.49.07,1.054,1.054,0,0,0,.3-.03s.02.02.02,0a1.313,1.313,0,0,0,.32-.1,2.1,2.1,0,0,0,.3-.15,1.613,1.613,0,0,0,.28-.24c1.09-1.11,2.18-2.82,4.06-2.14a3.27,3.27,0,0,1,.94.49c.45.32,1.05.73,1.71,1.2s1.38.96,2.1,1.46c.36.26.72.51,1.07.74.35.25.7.49,1.03.73.28.21.56.4.81.56.33.24.64.45.9.64l-.02.02S29.518,30.658,27.428,30.318Z" transform="translate(33 451)" fill="none" stroke="#b8bdc6" stroke-width="0.5"/>
      <path id="Path_21787" data-name="Path 21787" d="M10.608,31.021c0-.014-.041-.016-.093-.016h-.084a1.557,1.557,0,0,1-1.154-.419,1.631,1.631,0,0,1-.334-1.278l1.215-1.2.278-.289.13-.118a.537.537,0,0,1,.188-.1l.109-.037.77.227c.053.053.136.118.226.209a1.705,1.705,0,0,1,.384.529l.053.14a.833.833,0,0,1-.013.573l-.071.159-.019.018-.005-.015Z" transform="translate(33 451)" fill="#fff"/>
      <path id="Path_21788" data-name="Path 21788" d="M10.851,27.693l.7.2a2.184,2.184,0,0,1,.218.19,1.57,1.57,0,0,1,.355.486l.019.045v0c.007.019.015.034.02.051l.006.026.013.025a.5.5,0,0,1,.019.061.658.658,0,0,1-.036.408l.23.1-.229-.049-.008-.007-.005,0-.011,0-.022.035-.042.042-.407.427h.011l-1.11,1.138c-.043,0-.092,0-.144,0A1.442,1.442,0,0,1,9.368,30.5a1.459,1.459,0,0,1-.306-1.095l1.187-1.216L10.435,28l.057-.057h.01l.073-.073.063-.065a.572.572,0,0,1,.192-.1l.021-.008m.017-.255h-.03a.564.564,0,0,0-.12.04.681.681,0,0,0-.24.13l-.08.08c-.01,0-.02.01-.03.02l-.02.02-.09.09-.19.2L8.818,29.3a1.5,1.5,0,0,0,1.613,1.832,2.41,2.41,0,0,0,.247-.012h.01l.01-.01,1.58-1.62h-.02l.01-.01.07-.07V29.4c.01-.02.02-.03.03-.05l.03-.06a.909.909,0,0,0,.05-.56.564.564,0,0,0-.04-.12,1.121,1.121,0,0,0-.05-.13,1.81,1.81,0,0,0-.41-.57,2.781,2.781,0,0,0-.28-.24Z" transform="translate(33 451)" fill="#b8bdc6"/>
      <path id="Path_21789" data-name="Path 21789" d="M12.338,29.408l-.06.08h-.02l.01-.01.07-.07" transform="translate(33 451)" fill="#fff"/>
      <path id="Path_21790" data-name="Path 21790" d="M12.338,29.408l-.07.07-.01.01h.02Z" transform="translate(33 451)" fill="#415490"/>
      <path id="Path_21791" data-name="Path 21791" d="M12.368,29.348a.169.169,0,0,0-.02.05h-.01c.01-.02.02-.03.03-.05" transform="translate(33 451)" fill="#fff"/>
      <path id="Path_21792" data-name="Path 21792" d="M12.368,29.348c-.01.02-.02.03-.03.05h.01a.169.169,0,0,1,.02-.05" transform="translate(33 451)" fill="#415490"/>
      <path id="Path_21793" data-name="Path 21793" d="M12.466,32.863A1.675,1.675,0,0,1,11.21,32.4a1.522,1.522,0,0,1-.239-1.268l.023-.144,1.379-1.414.065-.087.847-.846a1.1,1.1,0,0,1,.765-.38,1.19,1.19,0,0,1,.819.4,1.15,1.15,0,0,1,.258.33.884.884,0,0,1,.159.351.431.431,0,0,1,.018.172,1.273,1.273,0,0,1-.028.261.8.8,0,0,1-.217.438l-.111.131Z" transform="translate(33 451)" fill="#fff"/>
      <path id="Path_21794" data-name="Path 21794" d="M14.051,28.382h0a1.083,1.083,0,0,1,.737.37,1.2,1.2,0,0,1,.252.329.747.747,0,0,1,.126.288.4.4,0,0,1,.012.159,1.053,1.053,0,0,1-.027.231.668.668,0,0,1-.18.363l-.022.023-.018.037-.07.07-.1.1-2.345,2.384a1.514,1.514,0,0,1-1.109-.422,1.407,1.407,0,0,1-.211-1.167l.017-.106,1.366-1.4.037-.053.876-.878a.965.965,0,0,1,.66-.325m0-.25a1.207,1.207,0,0,0-.853.416l-.86.86-.06.08-1.58,1.62h.15c-.26,1.63.94,1.88,1.67,1.88l2.42-2.46.1-.1.07-.07a.248.248,0,0,0,.04-.06.924.924,0,0,0,.25-.5,1.241,1.241,0,0,0,.03-.27.566.566,0,0,0-.02-.22.973.973,0,0,0-.17-.38,1.6,1.6,0,0,0-1.187-.8" transform="translate(33 451)" fill="#b8bdc6"/>
      <path id="Path_21795" data-name="Path 21795" d="M16.816,30.939a1.514,1.514,0,0,0-.257-.278h.022a1.347,1.347,0,0,1,.235.278" transform="translate(33 451)" fill="#415490"/>
      <path id="Path_21796" data-name="Path 21796" d="M16.581,30.66H16.56a1.576,1.576,0,0,1,.256.279,1.4,1.4,0,0,0-.235-.279" transform="translate(33 451)" fill="#fff"/>
      <path id="Path_21797" data-name="Path 21797" d="M16.553,35.291c-.561,0-.869-.409-.917-1.216l-.012-.195s-.209.112-.269.14l1.315-1.347a.787.787,0,0,1,.135-.137.757.757,0,0,1,.384-.107,1.177,1.177,0,0,1,.8.416,2.358,2.358,0,0,1,.224.243,1.092,1.092,0,0,1,.2.464.864.864,0,0,1-.008.322l-.063.027-.534.727-.461.48a2.411,2.411,0,0,1-.792.183" transform="translate(33 451)" fill="#fff"/>
      <path id="Path_21798" data-name="Path 21798" d="M17.189,32.554a1.068,1.068,0,0,1,.712.38,2.4,2.4,0,0,1,.207.223,1.077,1.077,0,0,1,.188.444.672.672,0,0,1,0,.148l-.058.079-.536.724-.4.419a1.887,1.887,0,0,1-.752.2c-.179,0-.726,0-.792-1.1l-.017-.268,1.036-1.063a.817.817,0,0,1,.076-.085.651.651,0,0,1,.333-.1m0-.25a.9.9,0,0,0-.459.132.847.847,0,0,0-.149.15L14.869,34.34a3.7,3.7,0,0,0,.642-.257c.064,1.058.553,1.334,1.042,1.334a2.117,2.117,0,0,0,.862-.222h.021l.449-.47.022-.022.534-.727L18.5,34v-.021a.956.956,0,0,0,.039-.405c0-.012-.007-.025-.009-.037a1.223,1.223,0,0,0-.222-.52,2.5,2.5,0,0,0-.235-.257,1.276,1.276,0,0,0-.889-.453" transform="translate(33 451)" fill="#b8bdc6"/>
      <path id="Path_21799" data-name="Path 21799" d="M14.912,22.4s2.246-2.758,3.23-3.015a22.278,22.278,0,0,1,3.743-.129s5.154,1.306,6.93-.555l3.144,5,.363.577.578.941-3.893,3.08h-.021c-1.412-1-3.936-2.759-5.9-4.128-.663-.449-1.261-.855-1.711-1.176a5.179,5.179,0,0,0-.941-.513c-1.882-.684-2.973,1.027-4.064,2.138a1.671,1.671,0,0,1-1.711.45,1.887,1.887,0,0,1-.406-.214c-.513-.407-.62-1.2.385-2.181Z" transform="translate(33 451)" fill="#fff"/>
      <path id="Path_21800" data-name="Path 21800" d="M14.912,22.4s2.246-2.758,3.23-3.015a22.278,22.278,0,0,1,3.743-.129s5.154,1.306,6.93-.555l3.144,5,.363.577.578.941-3.893,3.08h-.021c-1.412-1-3.936-2.759-5.9-4.128-.663-.449-1.261-.855-1.711-1.176a5.179,5.179,0,0,0-.941-.513c-1.882-.684-2.973,1.027-4.064,2.138a1.671,1.671,0,0,1-1.711.45,1.887,1.887,0,0,1-.406-.214c-.513-.407-.62-1.2.385-2.181l.278-.279" transform="translate(33 451)" fill="none" stroke="#b8bdc6" stroke-width="0.5"/>
      <line id="Line_219" data-name="Line 219" x1="4.769" y1="2.938" transform="translate(55.738 478.555)" fill="none" stroke="#b8bdc6" stroke-linecap="round" stroke-width="0.5"/>
      <line id="Line_220" data-name="Line 220" x1="4.857" y1="3.004" transform="translate(53.699 480.276)" fill="none" stroke="#b8bdc6" stroke-linecap="round" stroke-width="0.5"/>
      <line id="Line_221" data-name="Line 221" x1="5.021" y1="3.114" transform="translate(51.649 482.194)" fill="none" stroke="#b8bdc6" stroke-linecap="round" stroke-width="0.5"/>
      <path id="Path_21801" data-name="Path 21801" d="M14.315,34.289c-.694,0-1.077-.454-1.139-1.349l-.009-.141-.14.028s-.078.015-.2.026l2.3-2.339a.764.764,0,0,1,.487-.192,1.312,1.312,0,0,1,.857.43,1.359,1.359,0,0,1,.243.262.927.927,0,0,1,.013,1.247l-.087.086a.92.92,0,0,0-.161.164l-1.7,1.741c-.129.013-.3.037-.465.037" transform="translate(33 451)" fill="#fff"/>
      <path id="Path_21802" data-name="Path 21802" d="M15.616,30.447h0a1.226,1.226,0,0,1,.787.409,1.269,1.269,0,0,1,.21.229.8.8,0,0,1,.026,1.089l-.059.062a.994.994,0,0,0-.179.176l-1.66,1.7a1.965,1.965,0,0,1-.426.051c-.626,0-.957-.4-1.014-1.232l-.02-.282-.1.018L15.11,30.71l.108-.108.026-.033a.659.659,0,0,1,.372-.122m0-.25a.919.919,0,0,0-.511.164l-.064.065-.107.106-2.417,2.46h.021a2.883,2.883,0,0,0,.514-.043c.08,1.173.679,1.465,1.263,1.465a2.354,2.354,0,0,0,.555-.074l1.711-1.754a.847.847,0,0,1,.149-.15l.086-.085a1.052,1.052,0,0,0,0-1.412,1.483,1.483,0,0,0-.257-.278,1.4,1.4,0,0,0-.943-.464" transform="translate(33 451)" fill="#b8bdc6"/>
      <path id="Path_21803" data-name="Path 21803" d="M28.815,18.7l7.165-4.3v8.5l-3.08,2.32Z" transform="translate(33 451)" fill="#b8bdc6"/>
      <path id="Path_21804" data-name="Path 21804" d="M28.815,18.7l7.165-4.3v8.5l-3.08,2.32Z" transform="translate(33 451)" fill="none" stroke="#b8bdc6" stroke-width="0.5"/>
      <path id="Path_21805" data-name="Path 21805" d="M11.276,18.768l-7.3-5.074v9.361l3.061,2.172Z" transform="translate(33 451)" fill="#b8bdc6"/>
      <path id="Path_21806" data-name="Path 21806" d="M11.276,18.768l-7.3-5.074v9.361l3.061,2.172Z" transform="translate(33 451)" fill="none" stroke="#b8bdc6" stroke-width="0.5"/>
      <path id="Path_21807" data-name="Path 21807" d="M24.034,6.3l4.994-2.229L34.05,6.376,29.057,8.893l-.013,0Z" transform="translate(33 451)" fill="#d7d9dc"/>
      <path id="Path_21808" data-name="Path 21808" d="M29.039,4.229l4.718,2.177L29.046,8.732l-4.718-2.45Zm0-.312a.182.182,0,0,0-.072.015L23.976,6.108a.179.179,0,0,0-.011.324l5,2.594a.169.169,0,0,0,.082.02.187.187,0,0,0,.08-.018l4.992-2.465a.179.179,0,0,0,0-.323l-5-2.306a.165.165,0,0,0-.075-.017" transform="translate(33 451)" fill="#fff"/>
      <path id="Path_21809" data-name="Path 21809" d="M29.208,14.97a.019.019,0,0,1-.016-.021V9.2L34.2,6.633l.021,5.769Z" transform="translate(33 451)" fill="#d7d9dc"/>
      <path id="Path_21810" data-name="Path 21810" d="M34.073,6.867v5.457l-4.731,2.41V9.277Zm.134-.386a.171.171,0,0,0-.074.018l-5,2.547a.172.172,0,0,0-.092.153v5.75a.169.169,0,0,0,.166.171.164.164,0,0,0,.073-.018l5-2.548a.169.169,0,0,0,.092-.152V6.651a.168.168,0,0,0-.166-.17" transform="translate(33 451)" fill="#fff"/>
      <path id="Path_21811" data-name="Path 21811" d="M23.868,12.305l-.015-5.779,5.024,2.633.014,5.779-.025.031Z" transform="translate(33 451)" fill="#d7d9dc"/>
      <path id="Path_21812" data-name="Path 21812" d="M24,6.728l4.739,2.529v5.478L24,12.207Zm-.124-.383a.179.179,0,0,0-.176.181v5.751a.181.181,0,0,0,.094.16L28.784,15.1a.175.175,0,0,0,.081.021.179.179,0,0,0,.177-.181V9.187a.183.183,0,0,0-.095-.161L23.96,6.366a.172.172,0,0,0-.081-.021" transform="translate(33 451)" fill="#fff"/>
      <path id="Path_21813" data-name="Path 21813" d="M6.117,5.358,9.2,4.041l3.071,1.422L9.194,6.956Z" transform="translate(33 451)" fill="#d7d9dc"/>
      <path id="Path_21814" data-name="Path 21814" d="M9.189,4.18l2.762,1.275L9.195,6.816,6.433,5.382Zm0-.263a.112.112,0,0,0-.044.009L6.066,5.269a.111.111,0,0,0-.007.2l3.084,1.6a.113.113,0,0,0,.051.012.109.109,0,0,0,.049-.011L12.324,5.55a.111.111,0,0,0,0-.2L9.237,3.927a.1.1,0,0,0-.046-.01" transform="translate(33 451)" fill="#fff"/>
      <path id="Path_21815" data-name="Path 21815" d="M9.317,7.176,12.39,5.621l-.033,3.532L9.317,10.69Z" transform="translate(33 451)" fill="#d7d9dc"/>
      <path id="Path_21816" data-name="Path 21816" d="M12.231,5.843V9.065L9.443,10.486V7.264ZM12.38,5.5a.091.091,0,0,0-.045.011L9.25,7.082a.105.105,0,0,0-.057.094v3.549a.1.1,0,0,0,.1.1.093.093,0,0,0,.045-.011l3.084-1.572a.1.1,0,0,0,.057-.094V5.6a.1.1,0,0,0-.1-.105" transform="translate(33 451)" fill="#fff"/>
      <path id="Path_21817" data-name="Path 21817" d="M6.014,9.064l.008-3.538L9.075,7.18l-.008,3.513Z" transform="translate(33 451)" fill="#d7d9dc"/>
      <path id="Path_21818" data-name="Path 21818" d="M6.147,5.76l2.8,1.491v3.234l-2.8-1.492Zm-.141-.345a.111.111,0,0,0-.109.112V9.076a.114.114,0,0,0,.059.1l3.077,1.642a.111.111,0,0,0,.05.012.11.11,0,0,0,.109-.111V7.169a.112.112,0,0,0-.059-.1L6.056,5.428a.1.1,0,0,0-.05-.013" transform="translate(33 451)" fill="#fff"/>
      <path id="Path_21819" data-name="Path 21819" d="M6.117,10.468,9.2,9.151l3.071,1.422L9.194,12.066Z" transform="translate(33 451)" fill="#d7d9dc"/>
      <path id="Path_21820" data-name="Path 21820" d="M9.189,9.29l2.762,1.275L9.195,11.926,6.433,10.492Zm0-.263a.112.112,0,0,0-.044.009L6.066,10.379a.111.111,0,0,0-.007.2l3.084,1.6a.113.113,0,0,0,.051.012.109.109,0,0,0,.049-.011l3.081-1.521a.111.111,0,0,0,0-.2L9.237,9.037a.1.1,0,0,0-.046-.01" transform="translate(33 451)" fill="#fff"/>
      <path id="Path_21821" data-name="Path 21821" d="M9.317,12.287l3.073-1.555-.033,3.532L9.317,15.8Z" transform="translate(33 451)" fill="#d7d9dc"/>
      <path id="Path_21822" data-name="Path 21822" d="M12.231,10.954v3.222L9.443,15.6V12.375Zm.149-.344a.091.091,0,0,0-.045.011L9.25,12.193a.105.105,0,0,0-.057.094v3.549a.1.1,0,0,0,.1.1.106.106,0,0,0,.045-.011l3.084-1.572a.1.1,0,0,0,.057-.094V10.715a.1.1,0,0,0-.1-.105" transform="translate(33 451)" fill="#fff"/>
      <path id="Path_21823" data-name="Path 21823" d="M6.014,14.175l.008-3.538,3.053,1.654L9.067,15.8Z" transform="translate(33 451)" fill="#d7d9dc"/>
      <path id="Path_21824" data-name="Path 21824" d="M6.147,10.871l2.8,1.491V15.6L6.147,14.1Zm-.141-.345a.111.111,0,0,0-.109.112v3.549a.111.111,0,0,0,.059.1l3.077,1.642a.1.1,0,0,0,.05.013.11.11,0,0,0,.109-.111V12.28a.112.112,0,0,0-.059-.1L6.056,10.539a.1.1,0,0,0-.05-.013" transform="translate(33 451)" fill="#fff"/>
      <path id="Path_21825" data-name="Path 21825" d="M11.079,7.594l3.08-1.317L17.23,7.7,14.156,9.192Z" transform="translate(33 451)" fill="#d7d9dc"/>
      <path id="Path_21826" data-name="Path 21826" d="M14.151,6.416l2.762,1.275L14.157,9.052,11.4,7.618Zm0-.263a.112.112,0,0,0-.044.009L11.028,7.505a.111.111,0,0,0-.007.2l3.084,1.6a.113.113,0,0,0,.051.012.109.109,0,0,0,.049-.011l3.081-1.521a.111.111,0,0,0,0-.2L14.2,6.163a.1.1,0,0,0-.046-.01" transform="translate(33 451)" fill="#fff"/>
      <path id="Path_21827" data-name="Path 21827" d="M14.279,9.412l3.074-1.555-.034,3.532-3.04,1.538Z" transform="translate(33 451)" fill="#d7d9dc"/>
      <path id="Path_21828" data-name="Path 21828" d="M17.193,8.08V11.3L14.4,12.723V9.5Zm.148-.344a.091.091,0,0,0-.045.011L14.211,9.319a.105.105,0,0,0-.057.094v3.549a.1.1,0,0,0,.1.105.106.106,0,0,0,.045-.011l3.085-1.572a.105.105,0,0,0,.057-.094V7.841a.1.1,0,0,0-.1-.105" transform="translate(33 451)" fill="#fff"/>
      <path id="Path_21829" data-name="Path 21829" d="M10.976,11.3l.008-3.538,3.053,1.654-.008,3.513Z" transform="translate(33 451)" fill="#d7d9dc"/>
      <path id="Path_21830" data-name="Path 21830" d="M11.109,8l2.8,1.491v3.234l-2.8-1.492Zm-.141-.345a.111.111,0,0,0-.109.112v3.549a.111.111,0,0,0,.059.1l3.077,1.642a.1.1,0,0,0,.05.013.11.11,0,0,0,.109-.111V9.406a.112.112,0,0,0-.059-.1L11.018,7.665a.1.1,0,0,0-.05-.013" transform="translate(33 451)" fill="#fff"/>
    </g>
  </g>
</svg>
