<svg xmlns="http://www.w3.org/2000/svg" width="40" height="40" viewBox="0 0 40 40">
  <g id="Group_9488" data-name="Group 9488" transform="translate(-33 -666)">
    <path id="Path_21836" data-name="Path 21836" d="M38,40H2a2,2,0,0,1-2-2V2A2,2,0,0,1,2,0H38a2,2,0,0,1,2,2V38a2,2,0,0,1-2,2" transform="translate(33 666)" fill="#fff"/>
    <g id="Group_9482" data-name="Group 9482">
      <path id="Path_21837" data-name="Path 21837" d="M16.64,35.853c.011-.124.031-.247.031-.371,0-3.979.006-7.959-.01-11.939,0-.268.1-.358.605-.353q2.794.027,5.59,0c.462,0,.591.063.59.329-.016,3.989-.011,7.978-.01,11.967,0,.124.015.248.023.371,0,.041-.035.071-.1.091a2.48,2.48,0,0,1-.647.05H17.392a2.344,2.344,0,0,1-.646-.054.156.156,0,0,1-.106-.092" transform="translate(33 666)" fill="#fff"/>
      <path id="Path_21838" data-name="Path 21838" d="M16.64,35.853c.011-.124.031-.247.031-.371,0-3.979.006-7.959-.01-11.939,0-.268.1-.358.605-.353q2.794.027,5.59,0c.462,0,.591.063.59.329-.016,3.989-.011,7.978-.01,11.967,0,.124.015.248.023.371,0,.041-.035.071-.1.091a2.48,2.48,0,0,1-.647.05H17.392a2.344,2.344,0,0,1-.646-.054A.156.156,0,0,1,16.64,35.853Z" transform="translate(33 666)" fill="none" stroke="#b8bdc6" stroke-width="1"/>
      <path id="Path_21839" data-name="Path 21839" d="M29.743,9.808c.006.062.019.124.019.186q0,12.946,0,25.893a.957.957,0,0,1-.62.11q-2.744,0-5.488,0c-.635,0-.663-.026-.663-.479q0-12.675-.009-25.35c0-.3.09-.4.523-.4,1.931.017,3.862.007,5.792.008a1.237,1.237,0,0,1,.45.031" transform="translate(33 666)" fill="#fff"/>
      <path id="Path_21840" data-name="Path 21840" d="M29.743,9.808c.006.062.019.124.019.186q0,12.946,0,25.893a.957.957,0,0,1-.62.11q-2.744,0-5.488,0c-.635,0-.663-.026-.663-.479q0-12.675-.009-25.35c0-.3.09-.4.523-.4,1.931.017,3.862.007,5.792.008A1.237,1.237,0,0,1,29.743,9.808Z" transform="translate(33 666)" fill="none" stroke="#b8bdc6" stroke-width="1"/>
      <path id="Path_21841" data-name="Path 21841" d="M10.349,19.648l4.818-.023c.474,0,.951.019,1.421-.006.423-.022.493.086.493.328q-.016,7.979-.009,15.957a1.093,1.093,0,0,1-.621.094q-2.745,0-5.489,0c-.637,0-.663-.021-.663-.416q0-7.807,0-15.617c0-.1-.044-.216.048-.317" transform="translate(33 666)" fill="#fff"/>
      <path id="Path_21842" data-name="Path 21842" d="M10.349,19.648l4.818-.023c.474,0,.951.019,1.421-.006.423-.022.493.086.493.328q-.016,7.979-.009,15.957a1.093,1.093,0,0,1-.621.094q-2.745,0-5.489,0c-.637,0-.663-.021-.663-.416q0-7.807,0-15.617C10.3,19.86,10.257,19.749,10.349,19.648Z" transform="translate(33 666)" fill="none" stroke="#b8bdc6" stroke-width="1"/>
      <path id="Path_21843" data-name="Path 21843" d="M4.09,26.743a.885.885,0,0,1,.431-.04c1.913,0,3.827.006,5.739-.007.443,0,.567.054.566.293-.015,2.977-.008,5.954-.006,8.931A1.043,1.043,0,0,1,10.3,36q-2.842,0-5.685,0c-.547,0-.576-.023-.576-.306q0-4.37,0-8.74c0-.07-.033-.143.049-.208" transform="translate(33 666)" fill="#fff"/>
      <path id="Path_21844" data-name="Path 21844" d="M4.09,26.743a.885.885,0,0,1,.431-.04c1.913,0,3.827.006,5.739-.007.443,0,.567.054.566.293-.015,2.977-.008,5.954-.006,8.931A1.043,1.043,0,0,1,10.3,36q-2.842,0-5.685,0c-.547,0-.576-.023-.576-.306q0-4.37,0-8.74C4.041,26.881,4.008,26.808,4.09,26.743Z" transform="translate(33 666)" fill="none" stroke="#b8bdc6" stroke-width="1"/>
      <path id="Path_21845" data-name="Path 21845" d="M36.016,16.651a1.1,1.1,0,0,1,.019.137q0,9.566,0,19.129a1.254,1.254,0,0,1-.62.081q-2.743,0-5.488,0c-.635,0-.663-.019-.663-.354q0-9.365-.009-18.727c0-.223.09-.3.523-.3,1.931.013,3.862.005,5.792.006a1.648,1.648,0,0,1,.45.023" transform="translate(33 666)" fill="#fff"/>
      <path id="Path_21846" data-name="Path 21846" d="M36.016,16.651a1.1,1.1,0,0,1,.019.137q0,9.566,0,19.129a1.254,1.254,0,0,1-.62.081q-2.743,0-5.488,0c-.635,0-.663-.019-.663-.354q0-9.365-.009-18.727c0-.223.09-.3.523-.3,1.931.013,3.862.005,5.792.006A1.648,1.648,0,0,1,36.016,16.651Z" transform="translate(33 666)" fill="none" stroke="#b8bdc6" stroke-width="1"/>
      <path id="Path_21847" data-name="Path 21847" d="M6.967,7.3l6.857,3.4a.258.258,0,0,0,.222,0L20.9,7.472a.231.231,0,0,0-.006-.425L14.034,4.021a.255.255,0,0,0-.2,0L6.982,6.875a.231.231,0,0,0-.015.424" transform="translate(33 666)" fill="#d7d9dc"/>
      <path id="Path_21848" data-name="Path 21848" d="M6.967,7.3l6.857,3.4a.258.258,0,0,0,.222,0L20.9,7.472a.231.231,0,0,0-.006-.425L14.034,4.021a.255.255,0,0,0-.2,0L6.982,6.875A.231.231,0,0,0,6.967,7.3Z" transform="translate(33 666)" fill="none" stroke="#fff" stroke-width="1"/>
      <path id="Path_21849" data-name="Path 21849" d="M21.122,15.333l-6.86,3.342a.227.227,0,0,1-.328-.2V10.93a.225.225,0,0,1,.126-.2l6.86-3.342a.227.227,0,0,1,.328.2v7.545a.223.223,0,0,1-.126.2" transform="translate(33 666)" fill="#d7d9dc"/>
      <path id="Path_21850" data-name="Path 21850" d="M21.122,15.333l-6.86,3.342a.227.227,0,0,1-.328-.2V10.93a.225.225,0,0,1,.126-.2l6.86-3.342a.227.227,0,0,1,.328.2v7.545A.223.223,0,0,1,21.122,15.333Z" transform="translate(33 666)" fill="none" stroke="#fff" stroke-width="1"/>
      <path id="Path_21851" data-name="Path 21851" d="M6.738,15.179l6.843,3.491a.241.241,0,0,0,.353-.21V10.914a.237.237,0,0,0-.13-.21L6.961,7.213a.242.242,0,0,0-.353.21v7.546a.237.237,0,0,0,.13.21" transform="translate(33 666)" fill="#d7d9dc"/>
      <path id="Path_21852" data-name="Path 21852" d="M6.738,15.179l6.843,3.491a.241.241,0,0,0,.353-.21V10.914a.237.237,0,0,0-.13-.21L6.961,7.213a.242.242,0,0,0-.353.21v7.546A.237.237,0,0,0,6.738,15.179Z" transform="translate(33 666)" fill="none" stroke="#fff" stroke-width="1"/>
    </g>
  </g>
</svg>
