<svg xmlns="http://www.w3.org/2000/svg" width="40" height="40" viewBox="0 0 40 40">
  <g id="Group_9495" data-name="Group 9495" transform="translate(-34 -307)">
    <path id="Path_21876" data-name="Path 21876" d="M38,40H2a2,2,0,0,1-2-2V2A2,2,0,0,1,2,0H38a2,2,0,0,1,2,2V38a2,2,0,0,1-2,2" transform="translate(34 307)" fill="#fff"/>
    <g id="Group_9494" data-name="Group 9494" transform="translate(-16 -1)">
      <path id="Path_21877" data-name="Path 21877" d="M11.481,9.442c-1.34,0-2.429-1.426-2.429-3.178a1.206,1.206,0,0,1,.009-.179l.019-.142-.01-.01a2.386,2.386,0,0,1,.052-.424,2.38,2.38,0,0,1,2.349-1.4,2.3,2.3,0,0,1,2.4,1.6,1.807,1.807,0,0,1,.021.2c.012.151.017.247.017.344,0,1.771-1.089,3.2-2.427,3.2" transform="translate(50 308)" fill="#fff"/>
      <path id="Path_21878" data-name="Path 21878" d="M11.471,4.235a2.176,2.176,0,0,1,2.276,1.5,1.4,1.4,0,0,1,.018.175l0,.038.007.026c.008.089.013.181.013.294,0,1.683-1.033,3.052-2.3,3.052s-2.3-1.369-2.3-3.052a1.518,1.518,0,0,1,.009-.2c0-.019,0-.04.006-.061L9.2,5.962v0l.024-.275H9.216c.006-.044.013-.086.021-.123a2.287,2.287,0,0,1,2.234-1.325m0-.25A2.51,2.51,0,0,0,9,5.484a2.552,2.552,0,0,0-.054.449H8.95a1.254,1.254,0,0,0-.014.136,1.436,1.436,0,0,0-.009.2c0,1.827,1.147,3.3,2.553,3.3s2.553-1.475,2.553-3.3V6.245c0-.1-.005-.2-.014-.3a.264.264,0,0,0,0-.056,1.591,1.591,0,0,0-.023-.209,2.415,2.415,0,0,0-2.521-1.7" transform="translate(50 308)" fill="#b8bdc6"/>
      <path id="Path_21879" data-name="Path 21879" d="M10.791,15.473l.05-2.662.262-1.579-.642-.97.009-.311c.292-.015.646-.048,1.012-.048a5.63,5.63,0,0,1,1.019.092l-.006.3-.629.906.245,1.623,0,2.654Z" transform="translate(50 308)" fill="#b8bdc6"/>
      <path id="Path_21880" data-name="Path 21880" d="M11.483,9.952a5.609,5.609,0,0,1,.963.083v.224l-.621.908L11.8,11.2l.006.04.254,1.57v.351h-.005v2.261H10.891v-2.6l.263-1.586.007-.039-.023-.033-.617-.909v-.226a5.544,5.544,0,0,1,.963-.081m0-.1a5.568,5.568,0,0,0-1.063.1v.34l.634.934-.263,1.586v2.712h1.366V13.261h.005V12.81l-.255-1.586.639-.934V9.95c-.014,0-.023,0-.036,0a5.59,5.59,0,0,0-1.027-.094" transform="translate(50 308)" fill="#fff"/>
      <path id="Path_21881" data-name="Path 21881" d="M13.752,5.766a2.337,2.337,0,0,1-.4-.585l-.141-.3-.251.222a5.151,5.151,0,0,1-3.023.612c-.266,0-.511-.007-.719-.016.008-.054.016-.108.027-.159a2.286,2.286,0,0,1,2.229-1.3,2.176,2.176,0,0,1,2.275,1.493l.005.038" transform="translate(50 308)" fill="#b8bdc6"/>
      <path id="Path_21882" data-name="Path 21882" d="M11.471,4.484a2.554,2.554,0,0,1,1.369.384l-.049.044a5.073,5.073,0,0,1-2.858.548c-.134,0-.263,0-.384,0a2.143,2.143,0,0,1,1.922-.972m0-.5A2.506,2.506,0,0,0,9,5.483a2.626,2.626,0,0,0-.055.448c.254.015.6.029.989.029a5.585,5.585,0,0,0,3.189-.674s.366.788.911.958a2.841,2.841,0,0,0-.015-.3.235.235,0,0,0-.005-.059c0-.071-.01-.138-.02-.2a2.417,2.417,0,0,0-2.522-1.7" transform="translate(50 308)" fill="#b8bdc6"/>
      <path id="Path_21883" data-name="Path 21883" d="M21.746,16.721l-.291,1.522a5.815,5.815,0,0,1-2.431-.59,3.334,3.334,0,0,1-.538-.41,17.179,17.179,0,0,0-2.391-2l-.568,3.16h-.04v5.69h-.34v11.66c0,.13-.15.23-.321.23H12.5c-.17,0-.32-.1-.32-.23V24.093h-1.39v11.66c0,.13-.15.23-.32.23H8.209c-.18,0-.33-.1-.33-.23V24.093h-.5v-8.8l-.929.023L6.264,21.77,4,21.733v-6.1a4.277,4.277,0,0,1,.229-1.38,4.9,4.9,0,0,1,.5-1.05,7.118,7.118,0,0,1,4.31-2.9l1.839,3.99.03.06.54,1.17.06.14.06-.14.54-1.17.13-.28,1.739-3.77a8.877,8.877,0,0,1,4.38,3.208c.009.01.019.01.019.03a.107.107,0,0,1,.03.05,1.425,1.425,0,0,1,.181.24,4.546,4.546,0,0,1,.279.52,4.407,4.407,0,0,0,2.88,2.37" transform="translate(50 308)" fill="#d7d9dc"/>
      <path id="Path_21884" data-name="Path 21884" d="M21.746,16.721l-.291,1.522a5.815,5.815,0,0,1-2.431-.59,3.334,3.334,0,0,1-.538-.41,17.179,17.179,0,0,0-2.391-2l-.568,3.16h-.04v5.69h-.34v11.66c0,.13-.15.23-.321.23H12.5c-.17,0-.32-.1-.32-.23V24.093h-1.39v11.66c0,.13-.15.23-.32.23H8.209c-.18,0-.33-.1-.33-.23V24.093h-.5v-8.8l-.929.023L6.264,21.77,4,21.733v-6.1a4.277,4.277,0,0,1,.229-1.38,4.9,4.9,0,0,1,.5-1.05,7.118,7.118,0,0,1,4.31-2.9l1.839,3.99.03.06.54,1.17.06.14.06-.14.54-1.17.13-.28,1.739-3.77a8.877,8.877,0,0,1,4.38,3.208c.009.01.019.01.019.03a.107.107,0,0,1,.03.05,1.425,1.425,0,0,1,.181.24,4.546,4.546,0,0,1,.279.52A4.407,4.407,0,0,0,21.746,16.721Z" transform="translate(50 308)" fill="none" stroke="#d7d9dc" stroke-width="0.25"/>
      <path id="Path_21885" data-name="Path 21885" d="M28.755,11.186,23.662,9.35l5.093-1.486L33.907,9.5,28.82,11.187l-.031,0Z" transform="translate(50 308)" fill="#b8bdc6"/>
      <path id="Path_21886" data-name="Path 21886" d="M28.784,8.011,33.35,9.475l-4.544,1.57L24.224,9.392Zm0-.3a.253.253,0,0,0-.073.011L23.623,9.261c-.141.042-.148.179-.011.229L28.7,11.327a.26.26,0,0,0,.084.014.241.241,0,0,0,.081-.013l5.089-1.745c.137-.047.135-.184-.005-.229L28.861,7.721a.253.253,0,0,0-.077-.012" transform="translate(50 308)" fill="#fff"/>
      <path id="Path_21887" data-name="Path 21887" d="M28.955,23.593a.055.055,0,0,1-.033-.009l.014-12.135L34.025,9.68l.043,12.139L28.98,23.588Z" transform="translate(50 308)" fill="#b8bdc6"/>
      <path id="Path_21888" data-name="Path 21888" d="M33.919,9.877v11.8L29.086,23.4V11.587Zm.131-.352a.246.246,0,0,0-.075.013l-5.095,1.8a.129.129,0,0,0-.094.109V23.622c0,.069.081.121.169.121a.2.2,0,0,0,.075-.014l5.095-1.8a.125.125,0,0,0,.094-.108V9.646c0-.07-.08-.121-.169-.121" transform="translate(50 308)" fill="#fff"/>
      <path id="Path_21889" data-name="Path 21889" d="M28.606,23.593l-.03-.006L23.493,21.7l0-12.146,5.142,1.912,0,12.145Z" transform="translate(50 308)" fill="#b8bdc6"/>
      <path id="Path_21890" data-name="Path 21890" d="M23.645,9.777l4.842,1.795V23.394L23.645,21.6Zm-.12-.348c-.094,0-.18.054-.18.128V21.73a.132.132,0,0,0,.1.114l5.082,1.884a.237.237,0,0,0,.083.014c.094,0,.18-.053.18-.128V11.441a.131.131,0,0,0-.1-.113L23.608,9.444a.239.239,0,0,0-.083-.015" transform="translate(50 308)" fill="#fff"/>
      <path id="Path_21891" data-name="Path 21891" d="M17.038,19.68h3.775l2.2,11.927H36" transform="translate(50 308)" fill="none" stroke="#d7d9dc" stroke-linejoin="round" stroke-width="1"/>
      <path id="Path_21892" data-name="Path 21892" d="M24.882,35.484a1.136,1.136,0,1,1,1.137-1.136,1.138,1.138,0,0,1-1.137,1.136" transform="translate(50 308)" fill="#d7d9dc"/>
      <path id="Path_21893" data-name="Path 21893" d="M24.882,33.714a.635.635,0,1,1-.637.635.637.637,0,0,1,.637-.635m0-1a1.635,1.635,0,1,0,1.637,1.635,1.636,1.636,0,0,0-1.637-1.635" transform="translate(50 308)" fill="#d7d9dc"/>
      <path id="Path_21894" data-name="Path 21894" d="M34.249,35.484a1.136,1.136,0,1,1,1.137-1.136,1.138,1.138,0,0,1-1.137,1.136" transform="translate(50 308)" fill="#d7d9dc"/>
      <path id="Path_21895" data-name="Path 21895" d="M34.249,33.714a.635.635,0,1,1-.637.635.637.637,0,0,1,.637-.635m0-1a1.635,1.635,0,1,0,1.637,1.635,1.636,1.636,0,0,0-1.637-1.635" transform="translate(50 308)" fill="#d7d9dc"/>
      <path id="Path_21896" data-name="Path 21896" d="M23,30.418c-.056,0-.126-.083-.143-.2l-1.061-5.36a.342.342,0,0,1,.07-.26l13.741.023a.336.336,0,0,1,.138.352l-.807,3.463c-.024.1-.082.164-.127.171Z" transform="translate(50 308)" fill="#d7d9dc"/>
      <path id="Path_21897" data-name="Path 21897" d="M22.052,24.755h0Zm-.012.044,13.46.067a.145.145,0,0,1,0,.045l-.807,3.456L23.1,30.152v0l-1.054-5.318a.124.124,0,0,1,0-.033m-.1-.5c-.247,0-.435.289-.391.6L22.6,30.247a.441.441,0,0,0,.39.421.277.277,0,0,0,.049,0l11.8-1.815a.443.443,0,0,0,.333-.361l.806-3.463c.076-.328-.114-.658-.379-.659L21.939,24.3Z" transform="translate(50 308)" fill="#d7d9dc"/>
    </g>
  </g>
</svg>
