<svg xmlns="http://www.w3.org/2000/svg" width="40" height="40" viewBox="0 0 40 40">
  <g id="Group_9496" data-name="Group 9496" transform="translate(-33 -523)">
    <path id="Path_21731" data-name="Path 21731" d="M38,40H2a2,2,0,0,1-2-2V2A2,2,0,0,1,2,0H38a2,2,0,0,1,2,2V38a2,2,0,0,1-2,2" transform="translate(33 523)" fill="#fff"/>
    <g id="Group_9373" data-name="Group 9373" transform="translate(-1579 -403)">
      <path id="Path_21732" data-name="Path 21732" d="M6.5,7.494l-.056-.133.1-.056h.151l-.029-.151A2.736,2.736,0,0,1,8.288,4.631l.1.536.124.019.142-.026.111-.04-.014-.14-.108-.572V4.181l1.346-.056.055.283V4.45L9.921,5.1l.119.063.1.021h.093l.092-.105.086-.445a2.721,2.721,0,0,1,1.621,2.49l-.029.148.15.036.109.056-.059.133Z" transform="translate(1612 926)" fill="#d7d9dc"/>
      <path id="Path_21733" data-name="Path 21733" d="M9.922,4.25v.187l-.108.577.018.234.2.039.063.01.045.014h.041l.23-.019.039-.2.054-.277a2.607,2.607,0,0,1,1.406,2.307l-.022.25H6.845L6.782,7.12A2.6,2.6,0,0,1,8.2,4.81l.046.232.02.269h.281L8.568,5.3l.127-.026.225-.1-.041-.215-.108-.56V4.25ZM9.992,4h-1.3a.176.176,0,0,0-.171.181v.227H8.516l.117.606c0,.014,0,.023-.018.028l-.094.018H8.514a.019.019,0,0,1-.02-.019l-.113-.585A2.844,2.844,0,0,0,6.532,7.12a.232.232,0,0,0,.005.059H6.5a.181.181,0,0,0-.18.181v.082a.181.181,0,0,0,.18.177H12.2a.182.182,0,0,0,.185-.177V7.36a.182.182,0,0,0-.185-.181h-.049a.288.288,0,0,0,0-.059,2.829,2.829,0,0,0-1.84-2.663l-.112.585a.028.028,0,0,1-.024.019h-.008l-.094-.018a.025.025,0,0,1-.018-.028l.117-.6-.009,0V4.181A.178.178,0,0,0,9.992,4" transform="translate(1612 926)" fill="#fff"/>
      <path id="Path_21734" data-name="Path 21734" d="M9.354,11.1A2.353,2.353,0,0,1,7.01,8.971,1.941,1.941,0,0,1,7,8.729v-.75h4.716v.75a2.065,2.065,0,0,1-.014.24A2.355,2.355,0,0,1,9.354,11.1" transform="translate(1612 926)" fill="#b8bdc6"/>
      <path id="Path_21735" data-name="Path 21735" d="M11.587,8.1v.624a1.8,1.8,0,0,1-.015.231,2.229,2.229,0,0,1-4.438-.006,1.827,1.827,0,0,1-.013-.225V8.1Zm.25-.25H6.871v.874a2.368,2.368,0,0,0,.014.256,2.479,2.479,0,0,0,4.936,0,1.944,1.944,0,0,0,.016-.256Z" transform="translate(1612 926)" fill="#fff"/>
      <path id="Path_21736" data-name="Path 21736" d="M4.125,17.953V15.767a4.112,4.112,0,0,1,.158-1.111,4.873,4.873,0,0,1,3.328-3.194l.827,2.1-.008.386h.424V13.4L9.1,12.121,8.49,11.34l.011-.079a5.836,5.836,0,0,1,.853-.062,6.08,6.08,0,0,1,.836.059v.159l-.585.7.244,1.3,0,.52h.424v-.431l.819-2.051a4.858,4.858,0,0,1,3.334,3.194,4.112,4.112,0,0,1,.158,1.111v2.186Z" transform="translate(1612 926)" fill="#b8bdc6"/>
      <path id="Path_21737" data-name="Path 21737" d="M9.354,11.324a6.131,6.131,0,0,1,.686.04l-.5.634-.071.089.022.112.228,1.2v.669H10.4V13.56l.767-1.944A4.713,4.713,0,0,1,14.3,14.69a3.93,3.93,0,0,1,.153,1.077v2.06H4.251v-2.06A3.93,3.93,0,0,1,4.4,14.69a4.727,4.727,0,0,1,3.134-3.074L8.3,13.56v.509h.675v-.25l0-.372L9.214,12.2l.022-.112L9.165,12l-.5-.634a5.8,5.8,0,0,1,.687-.04m0-.25a6.016,6.016,0,0,0-.963.077v.265l.578.737L8.729,13.4v.419H8.554v-.307l-.868-2.2a4.986,4.986,0,0,0-3.522,3.313A4.163,4.163,0,0,0,4,15.767v2.31H14.707v-2.31a4.126,4.126,0,0,0-.164-1.145,4.975,4.975,0,0,0-3.527-3.313l-.87,2.2v.307H9.971V13.4l-.233-1.247.578-.737v-.265c-.012,0-.017-.005-.03-.005a6.244,6.244,0,0,0-.932-.072" transform="translate(1612 926)" fill="#fff"/>
      <path id="Path_21738" data-name="Path 21738" d="M27.79,7.494l-.055-.133L27.83,7.3h.151l-.029-.151a2.736,2.736,0,0,1,1.629-2.523l.1.536.124.019.146-.028.114-.043-.129-.707V4.181l1.346-.056.055.283V4.45l-.125.644.115.064.106.023h.093l.092-.105.087-.445a2.721,2.721,0,0,1,1.621,2.49l-.041.157.161.027.11.056-.06.133Z" transform="translate(1612 926)" fill="#d7d9dc"/>
      <path id="Path_21739" data-name="Path 21739" d="M31.215,4.25v.187l-.108.577.018.234.2.039.063.01.045.014h.041l.23-.019.039-.2.054-.277a2.607,2.607,0,0,1,1.406,2.307l-.022.25H28.138l-.063-.249a2.6,2.6,0,0,1,1.416-2.31l.046.232.02.269h.281l.023-.005.126-.026.226-.1-.041-.215-.108-.56V4.25Zm.07-.25h-1.3a.176.176,0,0,0-.171.181v.227h0l.117.606c0,.014,0,.023-.018.028l-.094.018h-.007a.019.019,0,0,1-.02-.019l-.113-.585A2.844,2.844,0,0,0,27.825,7.12a.232.232,0,0,0,0,.059h-.04a.181.181,0,0,0-.18.181v.082a.181.181,0,0,0,.18.177H33.5a.182.182,0,0,0,.185-.177V7.36a.182.182,0,0,0-.185-.181h-.049a.288.288,0,0,0,0-.059,2.829,2.829,0,0,0-1.84-2.663l-.112.585a.028.028,0,0,1-.024.019h-.008l-.094-.018a.025.025,0,0,1-.018-.028l.117-.6-.009,0V4.181A.178.178,0,0,0,31.285,4" transform="translate(1612 926)" fill="#fff"/>
      <path id="Path_21740" data-name="Path 21740" d="M30.646,11.1A2.354,2.354,0,0,1,28.3,8.971a2.127,2.127,0,0,1-.014-.242v-.75H33v.75a1.835,1.835,0,0,1-.014.238A2.354,2.354,0,0,1,30.646,11.1" transform="translate(1612 926)" fill="#b8bdc6"/>
      <path id="Path_21741" data-name="Path 21741" d="M32.88,8.1v.624a1.8,1.8,0,0,1-.014.231,2.229,2.229,0,0,1-4.439-.006,1.827,1.827,0,0,1-.013-.225V8.1Zm.25-.25H28.164v.874a2.135,2.135,0,0,0,.015.256,2.479,2.479,0,0,0,4.936,0,2.135,2.135,0,0,0,.015-.256Z" transform="translate(1612 926)" fill="#fff"/>
      <path id="Path_21742" data-name="Path 21742" d="M25.418,17.953V15.767a4.112,4.112,0,0,1,.158-1.111A4.875,4.875,0,0,1,28.9,11.462l.827,2.1-.008.386h.424V13.4l.249-1.279-.613-.781.011-.079a5.836,5.836,0,0,1,.853-.062,6.1,6.1,0,0,1,.836.059v.159l-.585.7.244,1.3,0,.52h.424v-.431l.819-2.051a4.86,4.86,0,0,1,3.334,3.194,4.112,4.112,0,0,1,.158,1.111v2.186Z" transform="translate(1612 926)" fill="#b8bdc6"/>
      <path id="Path_21743" data-name="Path 21743" d="M30.646,11.324a6.118,6.118,0,0,1,.686.04l-.5.634-.07.089.021.112.229,1.2v.669h.675V13.56l.767-1.944A4.711,4.711,0,0,1,35.6,14.69a3.93,3.93,0,0,1,.153,1.077v2.06H25.543v-2.06A3.93,3.93,0,0,1,25.7,14.69a4.727,4.727,0,0,1,3.134-3.074L29.6,13.56v.509h.675v-.25l0-.372.239-1.247.021-.112-.07-.09-.5-.634a5.753,5.753,0,0,1,.685-.04m0-.25a6,6,0,0,0-.962.077v.265l.577.737L30.022,13.4v.419h-.175v-.307l-.869-2.2a4.986,4.986,0,0,0-3.522,3.313,4.163,4.163,0,0,0-.163,1.145v2.31H36v-2.31a4.163,4.163,0,0,0-.163-1.145,4.976,4.976,0,0,0-3.528-3.313l-.869,2.2v.307h-.175V13.4l-.233-1.247.577-.737v-.265c-.011,0-.017-.005-.029-.005a6.247,6.247,0,0,0-.933-.072" transform="translate(1612 926)" fill="#fff"/>
      <path id="Path_21744" data-name="Path 21744" d="M10.594,17.923v.309h-.019a2.4,2.4,0,0,0,.019-.309" transform="translate(1612 926)" fill="#fff"/>
      <path id="Path_21745" data-name="Path 21745" d="M20.059,16.589c-2.206,0-4-2.62-4-5.84a2.746,2.746,0,0,1,.014-.339,1.764,1.764,0,0,1,.014-.179l.016-.14-.014-.007a4.8,4.8,0,0,1,.083-.722,3.916,3.916,0,0,1,3.873-2.607A3.845,3.845,0,0,1,24,9.719a3.3,3.3,0,0,1,.034.364l.007.1c.014.17.022.348.022.525,0,3.256-1.8,5.876-4,5.876" transform="translate(1612 926)" fill="#fff"/>
      <path id="Path_21746" data-name="Path 21746" d="M20.044,6.881a3.719,3.719,0,0,1,3.829,2.863c.02.113.026.226.038.386l0,.069c.013.167.02.341.02.551,0,3.151-1.738,5.714-3.876,5.714S16.182,13.9,16.182,10.75A3.065,3.065,0,0,1,16.2,10.4a1.1,1.1,0,0,1,.012-.139l.009-.084.017-.273h-.01a4.356,4.356,0,0,1,.064-.492,3.79,3.79,0,0,1,3.755-2.526m0-.25a4.053,4.053,0,0,0-4,2.707,5.135,5.135,0,0,0-.087.811h.008c-.008.08-.022.166-.022.246a2.811,2.811,0,0,0-.015.355c0,3.3,1.854,5.964,4.126,5.964s4.126-2.664,4.126-5.964v-.036c0-.181-.007-.362-.021-.536a.426.426,0,0,0-.008-.1,3.049,3.049,0,0,0-.036-.377,3.959,3.959,0,0,0-4.075-3.069" transform="translate(1612 926)" fill="#d7d9dc"/>
      <path id="Path_21747" data-name="Path 21747" d="M18.958,25.1v-3.98l.5-2.435-1.23-1.46.022-.325a13.269,13.269,0,0,1,3.748,0v.4l-1.208,1.379.489,2.46,0,.534-.009.125v3.3Z" transform="translate(1612 926)" fill="#b8bdc6"/>
      <path id="Path_21748" data-name="Path 21748" d="M20.132,16.9a13.127,13.127,0,0,1,1.745.117v.2l-1.139,1.343-.078.093.023.118.473,2.352v.433h-.008V24.98H19.083V21.151l.489-2.376.025-.119-.079-.093-1.131-1.344v-.206a12.883,12.883,0,0,1,1.745-.115m0-.25a12.815,12.815,0,0,0-2,.149v.514l1.19,1.413-.494,2.4v4.1H21.4V21.808h.008v-.683l-.478-2.4,1.2-1.413V16.8c-.025,0-.042-.007-.067-.007a13.006,13.006,0,0,0-1.928-.142" transform="translate(1612 926)" fill="#fff"/>
      <path id="Path_21749" data-name="Path 21749" d="M10.721,28.255V24.329a7.391,7.391,0,0,1,.9-3.522,8.975,8.975,0,0,1,5.131-4.177l3.3,8.437,3.3-8.444A8.978,8.978,0,0,1,28.5,20.806a7.192,7.192,0,0,1,.617,1.513,7.394,7.394,0,0,1,.281,2.01v3.926Z" transform="translate(1612 926)" fill="#b8bdc6"/>
      <path id="Path_21750" data-name="Path 21750" d="M23.493,16.937a8.7,8.7,0,0,1,4.786,3.987,7.025,7.025,0,0,1,.6,1.464,7.154,7.154,0,0,1,.27,1.941V28H10.971V24.329a7.142,7.142,0,0,1,.271-1.943,6.975,6.975,0,0,1,.6-1.463A8.682,8.682,0,0,1,16.6,16.944l2.979,7.618.466,1.192.465-1.192Zm-.294-.623L20.048,24.38,16.9,16.321a9.217,9.217,0,0,0-5.5,4.366,7.66,7.66,0,0,0-.927,3.642V28.5H29.646V24.329a7.63,7.63,0,0,0-.927-3.642,9.223,9.223,0,0,0-5.52-4.373" transform="translate(1612 926)" fill="#fff"/>
      <path id="Path_21751" data-name="Path 21751" d="M24.057,10.518a3.749,3.749,0,0,1-1.229-1.584l-.071-.172-.132.131c-.988.977-3.3,1.182-5.065,1.182-.566,0-1.076-.022-1.471-.046a5.144,5.144,0,0,1,.082-.668,3.9,3.9,0,0,1,3.873-2.606A3.841,3.841,0,0,1,24,9.72c.016.116.024.235.032.361l.008.109c.01.105.017.217.021.328" transform="translate(1612 926)" fill="#d7d9dc"/>
      <path id="Path_21752" data-name="Path 21752" d="M20.044,6.88a3.716,3.716,0,0,1,3.828,2.854c.016.116.024.231.037.4l0,.072,0,.073a3.955,3.955,0,0,1-.973-1.389L22.8,8.544l-.264.26c-.748.739-2.516,1.145-4.978,1.145-.518,0-.986-.018-1.337-.038.014-.171.036-.343.066-.506A3.782,3.782,0,0,1,20.044,6.88m0-.25a4.045,4.045,0,0,0-4,2.708,5.429,5.429,0,0,0-.089.808c.409.027.971.053,1.6.053,1.789,0,4.136-.212,5.153-1.217,0,0,.591,1.422,1.472,1.73,0-.178-.007-.364-.024-.534a.53.53,0,0,0-.007-.105c-.008-.129-.017-.25-.032-.372A3.962,3.962,0,0,0,20.044,6.63" transform="translate(1612 926)" fill="#d7d9dc"/>
      <path id="Path_21753" data-name="Path 21753" d="M35.509,21.321a.1.1,0,0,1,.19.05C34.061,29.754,27.655,36,20,36S5.94,29.754,4.3,21.371a.1.1,0,0,1,.19-.05c1.9,5.444,8.123,9.436,15.509,9.436s13.609-3.992,15.509-9.436" transform="translate(1612 926)" fill="#b8bdc6"/>
    </g>
  </g>
</svg>
