<svg xmlns="http://www.w3.org/2000/svg" width="686.012" height="670.665" viewBox="0 0 686.012 670.665">
  <g id="Group_9387" data-name="Group 9387" transform="translate(-265.488 -120.839)">
    <line id="Line_163" data-name="Line 163" y1="3.639" transform="translate(418.085 121.339)" fill="none" stroke="#263238" stroke-linecap="round" stroke-linejoin="round" stroke-width="1"/>
    <line id="Line_166" data-name="Line 166" y1="3.639" transform="translate(363.469 121.339)" fill="none" stroke="#263238" stroke-linecap="round" stroke-linejoin="round" stroke-width="1"/>
    <line id="Line_169" data-name="Line 169" y1="3.639" transform="translate(305.358 122.649)" fill="none" stroke="#263238" stroke-linecap="round" stroke-linejoin="round" stroke-width="1"/>
    <path id="Path_21287" data-name="Path 21287" d="M556.708,579.505a172.67,172.67,0,0,0,55.679-58.838c83.221-144.8,64.4-358.327-95.827-449.889C442.5,28.462,335.869,1.678,255.836,45.144,190.928,80.4,151.188,146.75,118.2,207.16c-20.7,37.978-37.745,78.854-63.249,114.372C21.881,367.633-14.54,429.149,22.23,482.7c50.09,72.944,144.693,106.264,230.476,128.1,93.075,23.786,197.723,27.163,283.71-19.229Q546.853,586.012,556.708,579.505Z" transform="translate(268.391 139.735)" fill="#306de3"/>
    <path id="Path_21288" data-name="Path 21288" d="M556.708,579.505a172.67,172.67,0,0,0,55.679-58.838c83.221-144.8,64.4-358.327-95.827-449.889C442.5,28.462,335.869,1.678,255.836,45.144,190.928,80.4,151.188,146.75,118.2,207.16c-20.7,37.978-37.745,78.854-63.249,114.372C21.881,367.633-14.54,429.149,22.23,482.7c50.09,72.944,144.693,106.264,230.476,128.1,93.075,23.786,197.723,27.163,283.71-19.229Q546.853,586.012,556.708,579.505Z" transform="translate(268.693 139.407)" fill="#fff" opacity="0.8"/>
    <g id="Wifi_Icon" data-name="Wifi Icon" transform="translate(575.691 219.933)" opacity="0.6">
      <path id="Path_21289" data-name="Path 21289" d="M369.664,62.338c61.138.946,112.276,24.164,152.481,70.6a14.12,14.12,0,0,1-1.3,20.379,13.96,13.96,0,0,1-19.913-1.849,174.782,174.782,0,0,0-51.429-41.457,170.415,170.415,0,0,0-190.4,20.729,261.864,261.864,0,0,0-20.627,20.569c-5.823,6.128-14.295,7.1-20.379,1.849s-6.492-14.033-.99-20.379Q267.666,74.172,344.336,63.56c4-.553,8.035-.975,12.068-1.165C360.8,62.178,365.239,62.338,369.664,62.338Z" transform="translate(-213.244 -62.281)" fill="#263238"/>
      <path id="Path_21290" data-name="Path 21290" d="M360.968,101.3c38.692,1,75.054,17.468,103.673,50.6,5.648,6.521,4.978,14.935-1.281,20.379-5.968,5.124-14.557,4.367-20.1-1.951-14.935-17.337-33.044-30.016-55.1-35.984-44.966-12.14-83.846-1.077-116.453,32.214-1.208,1.237-2.329,2.562-3.479,3.857A14.133,14.133,0,1,1,246.87,151.9a141.987,141.987,0,0,1,45.593-35.75C312.523,106.22,333.747,101.387,360.968,101.3Z" transform="translate(-199.496 -44.501)" fill="#263238"/>
      <path id="Path_21291" data-name="Path 21291" d="M410.975,180.168a14.164,14.164,0,0,1-9.054,13.232,13.96,13.96,0,0,1-15.75-3.959,59.857,59.857,0,0,0-21.617-16.012c-23.218-9.84-48.838-3.741-66.1,15.779-4.105,4.614-9.214,6.3-15.124,4.513a14.12,14.12,0,0,1-6.551-22.694c29.579-35.664,83.992-40.759,119.569-10.976a85.888,85.888,0,0,1,11.194,11.223c1.965,2.387,2.824,5.692,4.163,8.588Z" transform="translate(-185.848 -26.582)" fill="#263238"/>
      <path id="Path_21292" data-name="Path 21292" d="M329.588,236.61a28.254,28.254,0,1,1,20.022-8.26A28.4,28.4,0,0,1,329.588,236.61Z" transform="translate(-173.211 -8.727)" fill="#263238"/>
    </g>
    <circle id="Ellipse_175" data-name="Ellipse 175" cx="33.844" cy="33.844" r="33.844" transform="translate(490.054 559.881) rotate(-45)" fill="none" stroke="#263238" stroke-linecap="round" stroke-linejoin="round" stroke-width="2" opacity="0.7"/>
    <ellipse id="Ellipse_176" data-name="Ellipse 176" cx="16.74" cy="33.844" rx="16.74" ry="33.844" transform="translate(521.17 526.029)" fill="none" stroke="#263238" stroke-linecap="round" stroke-linejoin="round" stroke-width="2" opacity="0.7"/>
    <path id="Path_21293" data-name="Path 21293" d="M171.29,279.456a33.844,33.844,0,0,0,46.9-.306" transform="translate(343.33 256.472)" fill="none" stroke="#263238" stroke-linecap="round" stroke-linejoin="round" stroke-width="2" opacity="0.7"/>
    <path id="Path_21294" data-name="Path 21294" d="M218.11,315.259a33.844,33.844,0,0,0-47.12.32" transform="translate(343.193 268.648)" fill="none" stroke="#263238" stroke-linecap="round" stroke-linejoin="round" stroke-width="2" opacity="0.7"/>
    <line id="Line_159" data-name="Line 159" x2="67.689" transform="translate(504.066 559.873)" fill="none" stroke="#263238" stroke-linecap="round" stroke-linejoin="round" stroke-width="2" opacity="0.7"/>
    <line id="Line_160" data-name="Line 160" y2="67.689" transform="translate(537.911 526.029)" fill="none" stroke="#263238" stroke-linecap="round" stroke-linejoin="round" stroke-width="2" opacity="0.7"/>
    <line id="Line_161" data-name="Line 161" y1="3.639" transform="translate(538.085 511.691)" fill="none" stroke="#263238" stroke-linecap="round" stroke-linejoin="round" stroke-width="1"/>
    <line id="Line_162" data-name="Line 162" y1="365.62" transform="translate(538.085 138.676)" fill="none" stroke="#263238" stroke-linecap="round" stroke-linejoin="round" stroke-width="1" stroke-dasharray="5.07 5.07"/>
    <path id="Path_21295" data-name="Path 21295" d="M156.474,129.68a21.034,21.034,0,0,0-21.034,21.034c0,11.645,21.034,35.358,21.034,35.358s21.034-23.757,21.034-35.358a21.034,21.034,0,0,0-21.034-21.034Zm0,30.569a9.527,9.527,0,1,1,0,.015Z" transform="translate(326.994 188.363)" fill="#6c7884" stroke="#263238" stroke-linecap="round" stroke-linejoin="round" stroke-width="1" opacity="0.7"/>
    <line id="Line_164" data-name="Line 164" y1="3.639" transform="translate(483.469 314.404)" fill="none" stroke="#263238" stroke-linecap="round" stroke-linejoin="round" stroke-width="1"/>
    <line id="Line_165" data-name="Line 165" y1="168.654" transform="translate(483.469 138.574)" fill="none" stroke="#263238" stroke-linecap="round" stroke-linejoin="round" stroke-width="1" stroke-dasharray="4.93 4.93"/>
    <path id="Path_21296" data-name="Path 21296" d="M132.622,248.2H90.96a12.3,12.3,0,0,0-12.3,12.3v18.924a12.286,12.286,0,0,0,12.3,12.286h0l.408,19.069,13.1-19.069h28.167a12.286,12.286,0,0,0,12.3-12.286V260.5a12.3,12.3,0,0,0-12.315-12.3Z" transform="translate(301.121 242.369)" fill="#fff" stroke="#263238" stroke-linecap="round" stroke-linejoin="round" stroke-width="1"/>
    <path id="Path_21297" data-name="Path 21297" d="M108.088,255.24H142.34a10.1,10.1,0,0,1,10.1,10.1v15.6a10.1,10.1,0,0,1-10.1,10.1h0L142,306.712l-10.757-15.663h-23.16A10.1,10.1,0,0,1,98,280.947v-15.6a10.1,10.1,0,0,1,10.088-10.1Z" transform="translate(309.934 245.577)" fill="#6c7884" stroke="#263238" stroke-linecap="round" stroke-linejoin="round" stroke-width="1"/>
    <path id="Path_21298" data-name="Path 21298" d="M114.36,268.71a3.77,3.77,0,1,0-3.77,3.77,3.77,3.77,0,0,0,3.77-3.77Z" transform="translate(313.953 249.997)" fill="#306de3"/>
    <circle id="Ellipse_177" data-name="Ellipse 177" cx="3.77" cy="3.77" r="3.77" transform="translate(432.389 514.937)" fill="#306de3"/>
    <circle id="Ellipse_178" data-name="Ellipse 178" cx="3.77" cy="3.77" r="3.77" transform="translate(444.049 514.937)" fill="#306de3"/>
    <line id="Line_167" data-name="Line 167" y1="3.639" transform="translate(425.358 473.625)" fill="none" stroke="#263238" stroke-linecap="round" stroke-linejoin="round" stroke-width="1"/>
    <line id="Line_168" data-name="Line 168" y1="326.565" transform="translate(425.358 139.884)" fill="none" stroke="#263238" stroke-linecap="round" stroke-linejoin="round" stroke-width="1" stroke-dasharray="4.93 4.93"/>
    <rect id="Rectangle_10762" data-name="Rectangle 10762" width="73.599" height="43.015" transform="translate(336.228 370.331)" fill="#fff" stroke="#263238" stroke-linecap="round" stroke-linejoin="round" stroke-width="1"/>
    <path id="Path_21299" data-name="Path 21299" d="M48.74,205.621,84.957,172.17l37.382,33.451Z" transform="translate(287.488 207.725)" fill="#fff" stroke="#5a6671" stroke-linecap="round" stroke-linejoin="round" stroke-width="1"/>
    <path id="Path_21300" data-name="Path 21300" d="M48.74,165.6l36.8,21.515,36.8-21.515Z" transform="translate(287.488 204.731)" fill="#fff" stroke="#5a6671" stroke-linecap="round" stroke-linejoin="round" stroke-width="1"/>
    <line id="Line_170" data-name="Line 170" y1="3.639" transform="translate(372.372 364.727)" fill="none" stroke="#263238" stroke-linecap="round" stroke-linejoin="round" stroke-width="1"/>
    <line id="Line_171" data-name="Line 171" y1="51.254" transform="translate(372.372 306.645)" fill="none" stroke="#263238" stroke-linecap="round" stroke-linejoin="round" stroke-width="1" stroke-dasharray="4.69 4.69"/>
    <line id="Line_172" data-name="Line 172" y1="3.639" transform="translate(372.372 299.585)" fill="none" stroke="#263238" stroke-linecap="round" stroke-linejoin="round" stroke-width="1"/>
    <g id="Cloud_Icon" data-name="Cloud Icon" transform="translate(291.389 130)">
      <path id="Path_21301" data-name="Path 21301" d="M118.6,81.244a39.871,39.871,0,0,0-74.123,7.191c-.64,0-1.266-.1-1.921-.1a24.135,24.135,0,0,0-3.217,48.11v.233H113.8a27.876,27.876,0,0,0,4.8-55.432Z" transform="translate(-17.937 26.228)" fill="#fff" stroke="#263238" stroke-linecap="round" stroke-linejoin="round" stroke-width="1"/>
      <line id="Line_173" data-name="Line 173" y1="3.639" transform="translate(64.927 81.75)" fill="none" stroke="#263238" stroke-linecap="round" stroke-linejoin="round" stroke-width="1"/>
      <line id="Line_174" data-name="Line 174" y1="67.456" transform="translate(64.927 7.191)" fill="none" stroke="#263238" stroke-linecap="round" stroke-linejoin="round" stroke-width="1" stroke-dasharray="4.88 4.88"/>
      <line id="Line_175" data-name="Line 175" y1="3.639" transform="translate(64.927 0)" fill="none" stroke="#263238" stroke-linecap="round" stroke-linejoin="round" stroke-width="1"/>
    </g>
    <path id="Path_21302" data-name="Path 21302" d="M41.884,244.609a7.686,7.686,0,0,0-4.614,1.558L18.943,232.425a7.642,7.642,0,1,0-2.518,3.363l18.327,13.742a7.5,7.5,0,0,0-.509,2.737,7.351,7.351,0,0,0,.509,2.722L16.424,268.729a7.686,7.686,0,1,0,2.518,3.363l18.327-13.727a7.642,7.642,0,1,0,4.614-13.742Z" transform="translate(267.137 230.457)" fill="#263238" opacity="0.6"/>
    <line id="Line_176" data-name="Line 176" y1="3.639" transform="translate(297.74 220.572)" fill="none" stroke="#263238" stroke-linecap="round" stroke-linejoin="round" stroke-width="1"/>
    <line id="Line_177" data-name="Line 177" y1="74.239" transform="translate(297.74 138.53)" fill="none" stroke="#263238" stroke-linecap="round" stroke-linejoin="round" stroke-width="1" stroke-dasharray="5.37 5.37"/>
    <line id="Line_179" data-name="Line 179" y1="3.639" transform="translate(297.74 455.24)" fill="none" stroke="#263238" stroke-linecap="round" stroke-linejoin="round" stroke-width="1"/>
    <line id="Line_180" data-name="Line 180" y1="142.408" transform="translate(297.74 305.539)" fill="none" stroke="#263238" stroke-linecap="round" stroke-linejoin="round" stroke-width="1" stroke-dasharray="5.02 5.02"/>
    <line id="Line_181" data-name="Line 181" y1="3.639" transform="translate(297.74 298.246)" fill="none" stroke="#263238" stroke-linecap="round" stroke-linejoin="round" stroke-width="1"/>
    <ellipse id="Ellipse_179" data-name="Ellipse 179" cx="18.458" cy="48.416" rx="18.458" ry="48.416" transform="translate(357.248 587.982)" fill="#306de3" stroke="#263238" stroke-width="1"/>
    <ellipse id="Ellipse_180" data-name="Ellipse 180" cx="34.499" cy="15.022" rx="34.499" ry="15.022" transform="translate(393.963 630.352) rotate(-72.37)" fill="#306de3" stroke="#263238" stroke-width="1"/>
    <path id="Path_21303" data-name="Path 21303" d="M32.1,412.691C13.312,409.5-.794,400.289.589,392.167s17.745-12.213,36.537-9.04,32.9,12.4,31.5,20.569S50.9,415.865,32.1,412.691Z" transform="translate(265.504 303.361)" fill="#306de3" stroke="#263238" stroke-width="1"/>
    <path id="Path_21304" data-name="Path 21304" d="M141.042,386.184c-15.692,15.5-34.237,22.3-41.414,15.066s-.277-25.722,15.416-41.283,34.237-22.33,41.414-15.052S156.778,370.623,141.042,386.184Z" transform="translate(309.383 285.106)" fill="#306de3" stroke="#263238" stroke-width="1"/>
    <path id="Path_21305" data-name="Path 21305" d="M68.529,352.277c15.168,22.024,19.7,45.228,10.1,51.836s-29.681-5.823-44.864-27.876-19.7-45.2-10.088-51.822S53.347,330.3,68.529,352.277Z" transform="translate(273.769 276.29)" fill="#306de3" stroke="#263238" stroke-width="1"/>
    <line id="Line_182" data-name="Line 182" x2="1.441" y2="66.568" transform="translate(376.986 682.397)" fill="none" stroke="#263238" stroke-linecap="round" stroke-width="1"/>
    <line id="Line_183" data-name="Line 183" x2="1.718" y2="64.006" transform="translate(375.269 618.391)" fill="none" stroke="#263238" stroke-linecap="round" stroke-width="1"/>
    <line id="Line_184" data-name="Line 184" x1="0.131" y2="4.891" transform="translate(375.269 607.954)" fill="none" stroke="#263238" stroke-linecap="round" stroke-width="1"/>
    <path id="Path_21306" data-name="Path 21306" d="M59.8,376.47a186.092,186.092,0,0,1,18.225,69.872" transform="translate(292.527 300.818)" fill="none" stroke="#263238" stroke-linecap="round" stroke-width="1"/>
    <path id="Path_21307" data-name="Path 21307" d="M38,343.15a219.223,219.223,0,0,1,31.734,48.5" transform="translate(282.594 285.635)" fill="none" stroke="#263238" stroke-linecap="round" stroke-width="1"/>
    <path id="Path_21308" data-name="Path 21308" d="M31.16,335.9s1.921,1.747,5.066,5.095" transform="translate(279.477 282.331)" fill="none" stroke="#263238" stroke-linecap="round" stroke-width="1"/>
    <path id="Path_21309" data-name="Path 21309" d="M108.885,381.17A218.482,218.482,0,0,0,79,440.6" transform="translate(301.276 302.959)" fill="none" stroke="#263238" stroke-linecap="round" stroke-width="1"/>
    <path id="Path_21310" data-name="Path 21310" d="M120.768,364.41a173.459,173.459,0,0,0-21.238,24.4" transform="translate(310.631 295.322)" fill="none" stroke="#263238" stroke-linecap="round" stroke-width="1"/>
    <path id="Path_21311" data-name="Path 21311" d="M134.748,352.53a96.958,96.958,0,0,0-16.158,11.456" transform="translate(319.316 289.909)" fill="none" stroke="#263238" stroke-linecap="round" stroke-width="1"/>
    <path id="Path_21312" data-name="Path 21312" d="M108.505,344.24c-10.19,32.185-23.96,79.712-30.365,121.01" transform="translate(300.884 286.132)" fill="none" stroke="#263238" stroke-linecap="round" stroke-width="1"/>
    <path id="Path_21313" data-name="Path 21313" d="M105.23,331.13c-1.82,5.415-3.945,11.864-6.23,19.084" transform="translate(310.39 280.158)" fill="none" stroke="#263238" stroke-linecap="round" stroke-width="1"/>
    <path id="Path_21314" data-name="Path 21314" d="M109.118,318.44s-1.79,4.935-4.658,13.378" transform="translate(312.878 274.375)" fill="none" stroke="#263238" stroke-linecap="round" stroke-width="1"/>
    <path id="Path_21315" data-name="Path 21315" d="M46.65,393.82c12.781,4.847,25.256,14.193,31.311,31.894" transform="translate(286.535 308.724)" fill="none" stroke="#263238" stroke-linecap="round" stroke-width="1"/>
    <path id="Path_21316" data-name="Path 21316" d="M30.44,390.52a80.7,80.7,0,0,1,23.6,4.8" transform="translate(279.149 307.22)" fill="none" stroke="#263238" stroke-linecap="round" stroke-width="1"/>
    <path id="Path_21317" data-name="Path 21317" d="M19.94,390.926s2.271-.32,6.026-.466" transform="translate(274.364 307.193)" fill="none" stroke="#263238" stroke-linecap="round" stroke-width="1"/>
    <path id="Path_21318" data-name="Path 21318" d="M144.122,412.712c18.793-3.188,32.9-12.4,31.515-20.583s-17.73-12.213-36.523-9.04-32.9,12.4-31.515,20.569S125.344,415.885,144.122,412.712Z" transform="translate(314.265 303.34)" fill="#306de3" stroke="#263238" stroke-width="1"/>
    <path id="Path_21319" data-name="Path 21319" d="M118.429,393.71c-12.912,4.8-25.591,14.164-31.719,32.025" transform="translate(304.789 308.673)" fill="none" stroke="#263238" stroke-linecap="round" stroke-width="1"/>
    <path id="Path_21320" data-name="Path 21320" d="M133.668,390.46a82,82,0,0,0-25.168,4.731" transform="translate(314.718 307.193)" fill="none" stroke="#263238" stroke-linecap="round" stroke-width="1"/>
    <path id="Path_21321" data-name="Path 21321" d="M136.216,390.894s-1.456-.2-4.076-.364" transform="translate(325.49 307.224)" fill="none" stroke="#263238" stroke-linecap="round" stroke-width="1"/>
    <path id="Path_21322" data-name="Path 21322" d="M138.554,473.81a89.713,89.713,0,0,0,8.734-38.109,78.329,78.329,0,0,0-3.494-23.291H45.464A78.8,78.8,0,0,0,41.97,435.7,89.509,89.509,0,0,0,50.7,473.81Z" transform="translate(284.403 317.194)" fill="#263238" opacity="0.6"/>
    <g id="Group_9380" data-name="Group 9380" transform="translate(120 10)" opacity="0.7">
      <path id="Path_21323" data-name="Path 21323" d="M42.845,419.88c-.291,1.79-.495,3.61-.655,5.459H146.867q-.233-2.766-.655-5.459Z" transform="translate(164.503 310.598)" fill="#263238"/>
      <path id="Path_21324" data-name="Path 21324" d="M145.66,440.7c.335-1.8.611-3.625.83-5.444H42.38c.218,1.82.509,3.639.83,5.444Z" transform="translate(164.59 317.606)" fill="#263238"/>
      <path id="Path_21325" data-name="Path 21325" d="M53.352,429.946a4.236,4.236,0,1,1-4.236-4.236A4.236,4.236,0,0,1,53.352,429.946Z" transform="translate(165.729 313.255)" fill="#263238"/>
      <path id="Path_21326" data-name="Path 21326" d="M67.9,429.946a4.236,4.236,0,1,1-4.236-4.236A4.236,4.236,0,0,1,67.9,429.946Z" transform="translate(172.359 313.255)" fill="#263238"/>
      <path id="Path_21327" data-name="Path 21327" d="M82.452,429.946a4.236,4.236,0,1,1-4.236-4.236A4.236,4.236,0,0,1,82.452,429.946Z" transform="translate(178.989 313.255)" fill="#263238"/>
      <circle id="Ellipse_181" data-name="Ellipse 181" cx="4.236" cy="4.236" r="4.236" transform="translate(274.163 738.965)" fill="#263238"/>
      <path id="Path_21328" data-name="Path 21328" d="M111.562,429.946a4.236,4.236,0,1,1-4.236-4.236,4.236,4.236,0,0,1,4.236,4.236Z" transform="translate(192.253 313.255)" fill="#263238"/>
    </g>
    <path id="Path_21329" data-name="Path 21329" d="M436.91,226.542h0a5.634,5.634,0,0,0-6.23,4.876L402.44,449.39,420.81,451.4l21.078-218.772A5.633,5.633,0,0,0,436.91,226.542Z" transform="translate(448.658 232.483)" fill="#263238" stroke="#263238" stroke-linecap="round" stroke-linejoin="round" stroke-width="1" opacity="0.6"/>
    <path id="Path_21330" data-name="Path 21330" d="M232.8,226.541h0a5.648,5.648,0,0,1,6.23,4.876l28.225,217.972L248.9,451.4,227.818,232.684A5.633,5.633,0,0,1,232.8,226.541Z" transform="translate(369.076 232.484)" fill="#263238" stroke="#263238" stroke-linecap="round" stroke-linejoin="round" stroke-width="1" opacity="0.6"/>
    <rect id="Rectangle_10763" data-name="Rectangle 10763" width="300.523" height="113.513" rx="4.59" transform="translate(624.159 677.477)" fill="#fff" stroke="#263238" stroke-linecap="round" stroke-linejoin="round" stroke-width="1"/>
    <rect id="Rectangle_10764" data-name="Rectangle 10764" width="313.245" height="85.535" rx="4.17" transform="translate(617.798 691.48)" fill="#fff" stroke="#263238" stroke-linecap="round" stroke-linejoin="round" stroke-width="1"/>
    <rect id="Rectangle_10765" data-name="Rectangle 10765" width="300.523" height="113.513" rx="4.59" transform="translate(466.554 677.477)" fill="#fff" stroke="#263238" stroke-linecap="round" stroke-linejoin="round" stroke-width="1"/>
    <rect id="Rectangle_10766" data-name="Rectangle 10766" width="313.245" height="85.535" rx="4.17" transform="translate(460.207 691.48)" fill="#fff" stroke="#263238" stroke-linecap="round" stroke-linejoin="round" stroke-width="1"/>
    <rect id="Rectangle_10767" data-name="Rectangle 10767" width="263.243" height="45.97" rx="5.01" transform="translate(486.555 710.5)" fill="#263238" stroke="#263238" stroke-linecap="round" stroke-linejoin="round" stroke-width="1" opacity="0.6"/>
    <g id="Group_9381" data-name="Group 9381" transform="translate(120 12.366)">
      <path id="Path_21331" data-name="Path 21331" d="M164.455,406.75a12.228,12.228,0,1,0,9.3.087" transform="translate(216.714 304.615)" fill="none" stroke="#306de3" stroke-linecap="round" stroke-width="3"/>
      <line id="Line_185" data-name="Line 185" y2="9.04" transform="translate(385.842 706.634)" fill="none" stroke="#306de3" stroke-linecap="round" stroke-width="3"/>
    </g>
    <path id="Path_21332" data-name="Path 21332" d="M270.929,423.68s-11.878,3.727-14.4,4.221-10.277-1.456-10.51,1.456,4.469,5.721,11.936,8.734,15.663,5.473,21.224,5.211,4.5-11.194,4.789-13.1S270.929,423.68,270.929,423.68Z" transform="translate(377.379 322.33)" fill="#fff" stroke="#263238" stroke-linecap="round" stroke-linejoin="round" stroke-width="1"/>
    <path id="Path_21333" data-name="Path 21333" d="M261.86,433.864c-9.316-3.828-13.64-5.823-15.532-6.754a1.456,1.456,0,0,0-.306.742c-.233,3.042,4.469,5.721,11.936,8.734s15.663,5.473,21.224,5.211c2.067-.087,3.217-1.674,3.858-3.727A53.683,53.683,0,0,1,261.86,433.864Z" transform="translate(377.379 323.893)" fill="#fff" stroke="#263238" stroke-linecap="round" stroke-linejoin="round" stroke-width="1"/>
    <path id="Path_21334" data-name="Path 21334" d="M335.437,347.724l-3.115,1.689v4.542s-64.966,10.83-65.811,16.493-3.421,89.9-3.421,89.9,10.466,11.281,12.737,8.734,2.824-10.714,2.824-10.714l10.786-74.618s73.176,6.725,84.152,3.275,16.42-18.109,16.711-24.906.277-9.913.277-9.913l-49.828-6.8Z" transform="translate(385.16 286.665)" fill="#306de3" stroke="#263238" stroke-linecap="round" stroke-linejoin="round" stroke-width="1"/>
    <path id="Path_21335" data-name="Path 21335" d="M304.184,426.039l-.48.757a71.467,71.467,0,0,1-8.021,10.568c-4.8,5.095-12.737,9.345-12.461,11.034s5.663,2.839,24.077-2.824c8.268-2.547,14.44-2.547,15.285-5.386s-5.954-15.008-5.954-15.008Z" transform="translate(394.331 323.013)" fill="#fff" stroke="#263238" stroke-linecap="round" stroke-linejoin="round" stroke-width="1"/>
    <path id="Path_21336" data-name="Path 21336" d="M322.583,436.739a8.122,8.122,0,0,0-.728-3.989,115.3,115.3,0,0,1-19.375,7.1,126.051,126.051,0,0,1-18.356,3.625c-.611.6-.961,1.106-.9,1.456.291,1.7,5.663,2.839,24.077-2.824C315.567,439.577,321.739,439.577,322.583,436.739Z" transform="translate(394.331 326.463)" fill="#fff" stroke="#263238" stroke-linecap="round" stroke-linejoin="round" stroke-width="1"/>
    <path id="Path_21337" data-name="Path 21337" d="M346.135,356.485s-6.8-5.939-7.366-2.547-1.689,4.251-1.689,4.251-47.571,5.663-52.943,9.054-7.089,7.933-3.974,14.731,24.077,81.255,24.077,81.255a34.291,34.291,0,0,0,6.784,2.256c3.115.568,9.636-2.547,9.636-2.547s-.8-13.873-2.78-18.4-10.088-56.771-10.088-56.771,34.383.131,45.985.131,24.353-9.622,26.9-17.555,1.456-9.622,1.456-9.622" transform="translate(392.235 290.074)" fill="#306de3" stroke="#263238" stroke-linecap="round" stroke-linejoin="round" stroke-width="1"/>
    <line id="Line_186" data-name="Line 186" x1="1.63" y1="8.909" transform="translate(698.456 668.947)" fill="none" stroke="#263238" stroke-linecap="round" stroke-linejoin="round" stroke-width="1"/>
    <path id="Path_21338" data-name="Path 21338" d="M335.84,364a18.919,18.919,0,0,1,2.2,4.12" transform="translate(418.31 295.135)" fill="none" stroke="#263238" stroke-linecap="round" stroke-linejoin="round" stroke-width="1"/>
    <path id="Path_21339" data-name="Path 21339" d="M327,357.21a33,33,0,0,1,11.121,7.569" transform="translate(414.282 292.042)" fill="none" stroke="#263238" stroke-linecap="round" stroke-linejoin="round" stroke-width="1"/>
    <path id="Path_21340" data-name="Path 21340" d="M334.34,358.31a22.752,22.752,0,0,1,10.35,9.549" transform="translate(417.627 292.543)" fill="none" stroke="#263238" stroke-linecap="round" stroke-linejoin="round" stroke-width="1"/>
    <path id="Path_21341" data-name="Path 21341" d="M314.637,304.733s0,.408-.073,1.106c-.247,4-4.673,9.957-2.023,17.468,6.012,16.944,4.789,29.39,4.236,25.765.859,5.663-4.236,17.832-4.236,21.835s-10.481,4.571,13.29,11.645,32.025,6.769,37.949,4.5S373.97,382.8,374.537,378s-4.527-13.3-4.818-20.671-1.281-30.409-8.355-45.126S335.6,287.28,335.6,287.28Z" transform="translate(406.645 260.177)" fill="#fff" stroke="#263238" stroke-linecap="round" stroke-linejoin="round" stroke-width="1"/>
    <path id="Path_21342" data-name="Path 21342" d="M338.86,338.289c1.237-.932,2.4-1.892,3.45-2.839" transform="translate(419.686 282.126)" fill="none" stroke="#263238" stroke-linecap="round" stroke-linejoin="round" stroke-width="1"/>
    <path id="Path_21343" data-name="Path 21343" d="M318.36,353.123A189.571,189.571,0,0,0,343.674,339.6" transform="translate(410.345 284.017)" fill="none" stroke="#263238" stroke-linecap="round" stroke-linejoin="round" stroke-width="1"/>
    <path id="Path_21344" data-name="Path 21344" d="M327.93,347.77a58.224,58.224,0,0,1-10.51,4.032" transform="translate(409.917 287.74)" fill="none" stroke="#263238" stroke-linecap="round" stroke-linejoin="round" stroke-width="1"/>
    <path id="Path_21345" data-name="Path 21345" d="M328.46,346.06s-.786.48-2.14,1.223" transform="translate(413.972 286.961)" fill="none" stroke="#263238" stroke-linecap="round" stroke-linejoin="round" stroke-width="1"/>
    <line id="Line_187" data-name="Line 187" y1="9.345" x2="7.642" transform="translate(746.362 586.25)" fill="none" stroke="#263238" stroke-linecap="round" stroke-linejoin="round" stroke-width="1"/>
    <path id="Path_21346" data-name="Path 21346" d="M316.128,256.909a41.453,41.453,0,0,0-5.109,6.536c-1.223,2.446-1.456,4.221-3.566,5.823s-6.463.568-6.361,3.086,2.737,4.92,2.737,4.92-2.111,15.372-1.31,17.817S314.308,298,314.308,298l5.575,18.181,19.8-13.407.582-5.313c.48-2.154,4.032-8.836,6.973-13.829s1.63-18.2-5.459-23.873-16.507-5.095-19.4-5.3S316.128,256.909,316.128,256.909Z" transform="translate(402.475 245.218)" fill="#fff" stroke="#263238" stroke-linecap="round" stroke-linejoin="round" stroke-width="1"/>
    <path id="Path_21347" data-name="Path 21347" d="M303.9,272.17a7.016,7.016,0,0,0,7.278,1.66" transform="translate(403.756 253.291)" fill="none" stroke="#263238" stroke-linecap="round" stroke-linejoin="round" stroke-width="1"/>
    <path id="Path_21348" data-name="Path 21348" d="M310.3,266.577c-.48,1.106-1.237,1.863-1.674,1.674s-.422-1.266,0-2.387,1.237-1.863,1.689-1.674S310.771,265.456,310.3,266.577Z" transform="translate(405.765 249.641)" fill="#263238"/>
    <path id="Path_21349" data-name="Path 21349" d="M309.16,262.022s4.265-.844,4.891,3.377" transform="translate(406.153 248.636)" fill="none" stroke="#263238" stroke-linecap="round" stroke-linejoin="round" stroke-width="1"/>
    <path id="Path_21350" data-name="Path 21350" d="M310.17,284.4l6.856-.262-4.687,5.735Z" transform="translate(406.613 258.746)" fill="#263238" stroke="#263238" stroke-linecap="round" stroke-linejoin="round" stroke-width="1"/>
    <path id="Path_21351" data-name="Path 21351" d="M322.4,279.718l-2.97-.888L317.67,281.6" transform="translate(410.031 256.326)" fill="none" stroke="#263238" stroke-linecap="round" stroke-linejoin="round" stroke-width="1"/>
    <path id="Path_21352" data-name="Path 21352" d="M326.582,253.982s4.28-4.92-.859-7.278-22.621,1.907-20.729,9.578,18.2,8.647,19.753,8.734-3.13,1.79-1.849,4.12,4.367,3.494,4.527,6.012-2.911,5.823-1.456,7.366,3.8-.728,5.284-1.3,5.546,3.523,2.329,8.734-5.357,4.673-5.357,4.673a4.847,4.847,0,0,0,1.456,5.546c2.839,2.446,8.661,1.732,10.1-.655s3.974-4.542,9.214-9.695,7.744-18.167,4.1-27.148S333.133,250.022,326.582,253.982Z" transform="translate(404.19 241.391)" fill="#263238" stroke="#263238" stroke-linecap="round" stroke-linejoin="round" stroke-width="1"/>
    <path id="Path_21353" data-name="Path 21353" d="M336.068,284.34,309.08,304.21l1.543,8.559,30.365-22.359Z" transform="translate(406.116 258.837)" fill="#fff" stroke="#263238" stroke-linecap="round" stroke-linejoin="round" stroke-width="1"/>
    <path id="Path_21354" data-name="Path 21354" d="M284.061,369.252l47.513-10.408-11.092-6.594L275.4,362.309Z" transform="translate(390.77 289.781)" fill="#fff" stroke="#263238" stroke-linecap="round" stroke-linejoin="round" stroke-width="1"/>
    <path id="Path_21355" data-name="Path 21355" d="M269.641,334.249l21.151,45.1L282.13,372.4l-21.5-42.3Z" transform="translate(384.039 279.688)" fill="#263238" stroke="#263238" stroke-linecap="round" stroke-linejoin="round" stroke-width="1"/>
    <path id="Path_21356" data-name="Path 21356" d="M298.635,350.76l-10.947,2.824-6.8,9.826a2.707,2.707,0,0,0,2.082.742,17.365,17.365,0,0,0,4.149-2.824l7.933-2.082s-4.163,2.46-4.163,3.028.757.757,2.649.568,6.419-4.367,6.419-4.367l3.013-3.77Z" transform="translate(393.271 289.102)" fill="#fff" stroke="#263238" stroke-linecap="round" stroke-linejoin="round" stroke-width="1"/>
    <path id="Path_21357" data-name="Path 21357" d="M322.645,316.99l-5.59,25.562-23.975,23.6,5.663,5.284,19.913-9.054,1.368-3.6,4.818-21.413Z" transform="translate(398.826 273.714)" fill="#fff" stroke="#263238" stroke-linecap="round" stroke-linejoin="round" stroke-width="1"/>
    <path id="Path_21358" data-name="Path 21358" d="M297.122,347.22s-7.642,1.135-10.481,1.135-9.622.568-10.757,1.135-6.507,3.959-6.23,6.507,5.095.291,5.095.291a37.147,37.147,0,0,0,3.683,6.507c2.271,3.115,3.406,1.98,7.933.277s11.325-6.783,11.325-6.783l3.959-3.683Z" transform="translate(388.146 287.489)" fill="#fff" stroke="#263238" stroke-linecap="round" stroke-linejoin="round" stroke-width="1"/>
    <path id="Path_21359" data-name="Path 21359" d="M355.287,292.615s-11.645-1.7-15.852,3.959a54.761,54.761,0,0,0-9.345,22.912c-.844,7.351-6.23,22.083-6.23,22.083l-36,29.958,6.23,9.345s43.67-20.379,44.776-21.748,15.576-38.794,15.576-38.794" transform="translate(396.447 262.498)" fill="#fff" stroke="#263238" stroke-linecap="round" stroke-linejoin="round" stroke-width="1"/>
    <g id="Floor" transform="translate(281.233 791.004)">
      <line id="Line_188" data-name="Line 188" x2="669.768" transform="translate(0 0)" fill="none" stroke="#263238" stroke-linecap="round" stroke-linejoin="round" stroke-width="1"/>
    </g>
  </g>
</svg>
